<svg width="50" height="50" viewBox="0 0 50 50" fill="none" xmlns="http://www.w3.org/2000/svg">
<path d="M40.1012 28.1732C40.1322 27.8519 40.2833 27.5604 40.6436 27.322C41.1125 27.0106 41.7596 26.951 42.3525 27.0338C43.604 27.206 44.6735 27.938 45.061 29.0013C45.1966 29.3689 45.2431 29.7631 45.1889 30.1373C45.1424 30.4553 45.0029 30.7567 44.8091 31.0217C44.7123 31.1542 44.5883 31.2635 44.4836 31.3894C44.4216 31.4655 44.3558 31.5947 44.4836 31.661C45.8476 32.3731 46.3785 33.7742 45.7159 35.1984C44.4953 37.8118 39.0511 37.3017 38.0707 35.4501C37.8034 34.9434 38.3536 34.4399 38.7295 34.1352C39.2022 33.7477 39.8648 33.4661 40.2794 33.0223C40.4809 32.807 40.6165 32.5486 40.694 32.2803C40.8103 31.8729 40.8025 31.4424 40.7483 31.0184C40.6824 30.4818 40.5545 29.9485 40.3647 29.4285C40.2097 29.0112 40.0663 28.574 40.105 28.1732H40.1012Z" fill="#262626"/>
<path d="M16.383 13.6765C25.4652 11.1079 37.8883 16.0287 40.444 25.4695C41.4843 29.3047 41.8494 35.4467 38.1629 38.122C35.0547 40.3772 30.4118 40.9006 26.6704 41.2011C23.0905 41.4886 19.4879 41.3529 15.9242 40.9523C12.9129 40.613 9.6755 39.8085 7.28136 37.8053C4.27979 35.2981 3.61098 31.2562 4.18933 27.5503C4.58027 25.0527 5.50433 22.6263 6.84518 20.4874C8.94854 17.1369 12.5187 14.7557 16.3151 13.6927L16.3798 13.6765H16.383Z" fill="#FFFDF0"/>
<path d="M7.46966 30.6735C14.1028 33.0031 25.3563 33.0483 34.3287 30.1695C37.663 29.1001 38.4514 33.3714 37.6695 35.1323C35.0847 40.948 12.468 41.5942 7.29842 35.4554C5.68617 33.5394 5.39215 29.9466 7.46966 30.6768V30.6735Z" fill="#FAF8E9"/>
<path d="M24.3546 26.3152C25.7472 23.2523 29.3082 25.7463 28.0255 28.4861C26.5749 31.1806 23.3407 28.9967 24.3224 26.3992L24.3546 26.3152ZM11.5734 25.9627C12.0482 24.8417 13.2144 24.2469 14.174 24.8474C15.5018 25.681 15.4341 27.907 14.339 28.9119L14.2814 28.9676V28.9636C12.3881 30.5468 10.6592 27.8269 11.5734 25.9627Z" fill="#262626"/>
<path d="M29.4063 7.5401C34.1951 5.31768 35.0518 10.45 32.3194 13.8936C30.9149 15.8807 27.3013 18.1868 25.5118 15.9053L25.4737 15.8497V15.8458C23.882 13.276 26.5869 8.96194 29.4063 7.5401ZM17.0479 6.76568C18.7715 3.07276 21.9373 4.52942 22.8389 7.82037C23.3106 9.54741 23.3176 11.4481 22.7315 13.1544C22.4263 14.0454 21.8858 14.9473 21.0225 15.3878C20.4365 15.686 19.8742 15.7242 19.3575 15.5821L19.3614 15.585C18.1407 15.2486 17.1834 13.9135 16.795 12.7032C16.2054 10.8618 16.1952 8.58714 17.0274 6.81158C17.0343 6.79771 17.041 6.77955 17.0479 6.76568Z" fill="#262626"/>
<path d="M36.5359 37.626C38.2353 37.5872 38.4002 40.3012 36.4685 39.5166C35.6381 39.1451 35.5087 37.7782 36.4812 37.6328L36.5359 37.626ZM9.12085 38.9248C8.96625 37.2225 11.6481 37.0259 10.9988 38.9707C10.6853 39.8074 9.34115 39.9559 9.12769 38.9805L9.11792 38.9248H9.12085ZM4.01343 32.5342C4.3851 30.9868 6.77825 31.6621 5.63452 33.1709C5.11419 33.807 3.89999 33.5099 4.00659 32.586L4.01636 32.5342H4.01343ZM38.3357 29.3975C40.1223 29.1068 40.5321 31.9266 38.4255 31.3838C37.5214 31.1153 37.2631 29.7044 38.2771 29.4102L38.3357 29.3975ZM6.64526 19.6436C7.14181 19.3546 7.80533 19.5682 8.12671 20.1201C8.44805 20.6723 8.30592 21.3546 7.80933 21.6436C7.31274 21.9325 6.6492 21.7191 6.32788 21.167C6.00673 20.615 6.14882 19.9326 6.64526 19.6436ZM34.2966 17.1289C34.5293 16.2114 35.9284 15.9018 36.2644 16.9034L36.281 16.961C36.6396 18.7348 33.8411 19.2549 34.2966 17.1289ZM12.9431 15.7334C12.31 15.1034 12.5658 13.788 13.4705 13.9883L13.5183 14.001C15.0336 14.5503 14.4423 17.1292 12.9431 15.7334Z" fill="#262626"/>
<path d="M27.1037 12.8048C27.7131 11.808 28.709 11.307 29.3283 11.6856C29.9476 12.0642 29.9553 13.179 29.3459 14.1758C28.7364 15.1726 27.7405 15.6736 27.1212 15.295C26.5022 14.9162 26.4944 13.8014 27.1037 12.8048ZM19.717 10.3292C20.4208 10.2912 21.037 11.1012 21.0929 12.1378C21.1487 13.1741 20.6237 14.045 19.9201 14.0831C19.2163 14.1211 18.6001 13.3111 18.5441 12.2745C18.4883 11.2383 19.0134 10.3674 19.717 10.3292Z" fill="#FFFDF0"/>
<path d="M19.0002 28.9999C19.2762 29 19.5002 29.2239 19.5002 29.4999C19.5002 29.6183 19.5746 29.8858 19.7659 30.1249C19.9445 30.3481 20.1861 30.4999 20.5002 30.4999C20.7762 30.5 21.0002 30.7239 21.0002 30.9999C21.0002 31.2759 20.7763 31.4997 20.5002 31.4999C19.8214 31.4999 19.3173 31.1581 18.9954 30.7616C18.7498 30.9845 18.49 31.1423 18.2688 31.2499C18.0889 31.3374 17.9274 31.3954 17.8098 31.4325C17.7512 31.451 17.7027 31.4654 17.6672 31.4745C17.6496 31.479 17.6342 31.4817 17.6233 31.4843C17.618 31.4855 17.6132 31.4873 17.6096 31.4882C17.608 31.4885 17.606 31.4889 17.6047 31.4891H17.6018C17.3315 31.5451 17.0671 31.3717 17.011 31.1014C16.9551 30.8312 17.1285 30.5667 17.3987 30.5106C17.4022 30.5098 17.4098 30.5081 17.4192 30.5057C17.4386 30.5008 17.4695 30.4919 17.509 30.4794C17.5892 30.454 17.7034 30.4127 17.8313 30.3505C18.0701 30.2342 18.3335 30.0554 18.5305 29.7948C18.5102 29.6925 18.5002 29.5931 18.5002 29.4999C18.5003 29.2238 18.7241 28.9999 19.0002 28.9999Z" fill="#262626"/>
</svg>
