<svg width="50" height="50" viewBox="0 0 50 50" fill="none" xmlns="http://www.w3.org/2000/svg">
<path d="M41.0849 28.7188C41.1107 28.4054 41.2367 28.121 41.5372 27.8884C41.9282 27.5847 42.4677 27.5265 42.9621 27.6073C44.0057 27.7753 44.8974 28.4894 45.2205 29.5265C45.3336 29.8851 45.3724 30.2696 45.3271 30.6347C45.2884 30.9449 45.172 31.2389 45.0105 31.4974C44.9297 31.6266 44.8263 31.7332 44.7391 31.856C44.6874 31.9303 44.6325 32.0563 44.7391 32.121C45.8764 32.8156 46.319 34.1823 45.7665 35.5716C44.7488 38.1209 40.2093 37.6233 39.3919 35.8172C39.1689 35.3228 39.6277 34.8317 39.9411 34.5345C40.3353 34.1565 40.8878 33.8818 41.2335 33.4489C41.4015 33.2389 41.5146 32.9869 41.5792 32.7251C41.6761 32.3277 41.6697 31.9077 41.6245 31.4942C41.5695 30.9707 41.4629 30.4505 41.3046 29.9433C41.1753 29.5362 41.0558 29.1097 41.0881 28.7188H41.0849Z" fill="#262626"/>
<path d="M16.9692 13.7205C26.0515 11.1518 38.4745 16.0726 41.0302 25.5135C42.0706 29.3486 42.4357 35.4907 38.7491 38.1659C35.641 40.4211 30.9981 40.9445 27.2566 41.245C23.6767 41.5326 20.0742 41.3969 16.5104 40.9962C13.4992 40.657 10.2617 39.8525 7.8676 37.8493C4.86604 35.3421 4.19723 31.3001 4.77557 27.5942C5.16652 25.0967 6.09057 22.6702 7.43142 20.5313C9.53478 17.1808 13.105 14.7996 16.9014 13.7366L16.966 13.7205H16.9692Z" fill="#FEFEFE"/>
<path d="M8.4588 31.6394C15.092 33.9689 26.3454 34.0141 35.3178 31.1353C38.6521 30.0659 39.4405 34.3372 38.6586 36.0981C36.0738 41.9138 13.4571 42.56 8.28756 36.4212C6.67531 34.5052 6.38129 30.9124 8.4588 31.6426V31.6394Z" fill="#F4F4F4"/>
<path d="M24.3547 26.3153C25.7472 23.2524 29.3082 25.7464 28.0256 28.4862C26.5749 31.1807 23.3407 28.9968 24.3224 26.3993L24.3547 26.3153ZM11.5734 25.9628C12.0483 24.8418 13.2145 24.247 14.174 24.8475C15.5019 25.6811 15.4342 27.9071 14.3391 28.912L14.2814 28.9677V28.9637C12.3881 30.5469 10.6593 27.827 11.5734 25.9628Z" fill="#262626"/>
<path d="M29.5764 7.45911C34.0383 5.38806 34.8362 10.1697 32.2902 13.3781C30.9817 15.2293 27.6156 17.3776 25.9484 15.2521L25.9123 15.2003V15.1974C24.4293 12.8033 26.9496 8.78385 29.5764 7.45911ZM17.0012 7.02551C18.607 3.58477 21.5576 4.94185 22.3976 8.00793C22.8371 9.61695 22.8431 11.388 22.2971 12.9777C22.0127 13.8079 21.5086 14.6474 20.7043 15.0577C20.1583 15.3356 19.6349 15.3718 19.1535 15.2394L19.1564 15.2423C18.0194 14.9289 17.1277 13.6852 16.7658 12.5577C16.2165 10.8421 16.2072 8.72176 16.9826 7.0675C16.989 7.05466 16.9948 7.03827 17.0012 7.02551Z" fill="#262626"/>
<path d="M36.5364 37.6261C38.2355 37.5878 38.4 40.3018 36.468 39.5167C35.6378 39.1452 35.5085 37.7786 36.4807 37.6329L36.5364 37.6261ZM9.12134 38.9249C8.96666 37.2225 11.6477 37.0259 10.9983 38.9708C10.6847 39.8072 9.34171 39.9557 9.12817 38.9806L9.11841 38.9249H9.12134ZM4.01294 32.5343C4.3845 30.9867 6.77877 31.6622 5.63501 33.171C5.11479 33.8074 3.89958 33.51 4.0061 32.5861L4.01587 32.5343H4.01294ZM38.3352 29.3976C40.1219 29.1068 40.5326 31.9267 38.426 31.3839C37.5214 31.1157 37.2631 29.7043 38.2776 29.4103L38.3352 29.3976ZM6.64575 19.6437C7.14221 19.3549 7.80485 19.5685 8.12622 20.1202C8.4475 20.6723 8.3062 21.3546 7.80981 21.6437C7.31322 21.9327 6.64971 21.7192 6.32837 21.1671C6.00703 20.615 6.14916 19.9327 6.64575 19.6437ZM34.2971 17.129C34.5299 16.2116 35.9289 15.9019 36.2649 16.9034L36.2805 16.9611C36.6392 18.7349 33.8416 19.255 34.2971 17.129ZM12.9436 15.7335C12.3104 15.1035 12.5654 13.7883 13.47 13.9884L13.5188 14.0011C15.034 14.5504 14.4426 17.1289 12.9436 15.7335Z" fill="#262626"/>
<path d="M27.2135 12.6959C27.7813 11.7674 28.7098 11.3002 29.2867 11.653C29.8635 12.0057 29.8708 13.0447 29.3033 13.9733C28.7356 14.902 27.8071 15.369 27.2301 15.0162C26.6533 14.6633 26.6458 13.6245 27.2135 12.6959ZM19.6364 10.4996C20.2921 10.4642 20.8664 11.2185 20.9186 12.1842C20.9705 13.1496 20.4813 13.9611 19.8258 13.9967C19.1701 14.0321 18.5958 13.2778 18.5436 12.3121C18.4915 11.3466 18.9809 10.5354 19.6364 10.4996Z" fill="#FEFEFE"/>
</svg>
