<svg width="50" height="50" viewBox="0 0 50 50" fill="none" xmlns="http://www.w3.org/2000/svg">
<path d="M40.1012 28.1732C40.1322 27.8519 40.2833 27.5604 40.6436 27.322C41.1125 27.0106 41.7596 26.951 42.3525 27.0338C43.604 27.206 44.6735 27.938 45.061 29.0013C45.1966 29.3689 45.2431 29.7631 45.1889 30.1373C45.1424 30.4553 45.0029 30.7567 44.8091 31.0217C44.7123 31.1542 44.5883 31.2635 44.4836 31.3894C44.4216 31.4655 44.3558 31.5947 44.4836 31.661C45.8476 32.3731 46.3785 33.7742 45.7159 35.1984C44.4953 37.8118 39.0511 37.3017 38.0707 35.4501C37.8034 34.9434 38.3536 34.4399 38.7295 34.1352C39.2022 33.7477 39.8648 33.4661 40.2794 33.0223C40.4809 32.807 40.6165 32.5486 40.694 32.2803C40.8103 31.8729 40.8025 31.4424 40.7483 31.0184C40.6824 30.4818 40.5545 29.9485 40.3647 29.4285C40.2097 29.0112 40.0663 28.574 40.105 28.1732H40.1012Z" fill="#262626"/>
<path d="M16.383 13.6765C25.4652 11.1079 37.8883 16.0287 40.444 25.4695C41.4843 29.3047 41.8494 35.4467 38.1629 38.122C35.0547 40.3772 30.4118 40.9006 26.6704 41.2011C23.0905 41.4886 19.4879 41.3529 15.9242 40.9523C12.9129 40.613 9.6755 39.8085 7.28136 37.8053C4.27979 35.2981 3.61098 31.2562 4.18933 27.5503C4.58027 25.0527 5.50433 22.6263 6.84518 20.4874C8.94854 17.1369 12.5187 14.7557 16.3151 13.6927L16.3798 13.6765H16.383Z" fill="#FFFDF0"/>
<path d="M7.51806 30.6884C14.3697 33.0693 25.9937 33.1156 35.2615 30.1733C38.7057 29.0802 39.52 33.4458 38.7124 35.2455C36.0425 41.1895 12.681 41.85 7.34118 35.5757C5.67584 33.6175 5.37214 29.9454 7.51806 30.6917V30.6884Z" fill="#FAF8E9"/>
<path d="M36.8805 23.1052C39.3477 22.3135 39.6796 26.2626 37.0419 25.8496C35.6041 25.6242 35.7551 23.4664 36.8805 23.1052Z" fill="#262626"/>
<path d="M36.8607 35.1548C34.4707 36.4548 33.3244 32.7485 36.1356 32.564C37.6681 32.4638 37.9508 34.5619 36.8607 35.1548Z" fill="#262626"/>
<path d="M5.97536 30.2487C8.28842 29.5064 8.59952 33.2087 6.12664 32.8216C4.77873 32.6102 4.92035 30.5873 5.97536 30.2487Z" fill="#262626"/>
<path d="M13.6226 17.4218C15.1625 19.0531 11.5246 21.4771 11.0273 18.8668C10.7509 17.4178 12.641 16.3819 13.6226 17.4218Z" fill="#262626"/>
<path d="M18.7865 38.7107C18.4731 40.5536 15.0354 39.3481 16.5232 37.7081C17.349 36.7974 18.9863 37.5358 18.7865 38.7107Z" fill="#262626"/>
<path d="M32.3182 18.1342C31.9764 20.1441 28.2274 18.8294 29.8499 17.0408C30.7505 16.0477 32.536 16.853 32.3182 18.1342Z" fill="#262626"/>
<path d="M28.1462 7.65424C26.9223 7.62616 25.7986 8.44871 25.0264 9.49752C23.7467 11.2663 22.7093 14.4975 24.6487 16.1418C25.4996 16.8667 26.722 17.2113 27.8103 17.1451C30.0606 17.0256 31.1438 14.2132 31.2583 12.145C31.3054 11.2617 31.2318 10.3219 30.8605 9.52899C30.4696 8.66227 29.7036 8.01098 28.8357 7.75236C28.6077 7.68869 28.3757 7.64778 28.1482 7.64286L28.1462 7.65424Z" fill="#262626"/>
<path d="M17.5798 6.73144C16.3924 7.1295 15.5965 8.29589 15.2174 9.5539C14.5997 11.6677 14.7225 15.078 17.1589 15.9575C18.2291 16.3467 19.5249 16.248 20.5491 15.8079C22.6729 14.9145 22.7394 11.8836 22.1322 9.8914C21.871 9.04114 21.4742 8.17941 20.8419 7.5597C20.1651 6.87707 19.2021 6.52794 18.2773 6.58486C18.0358 6.60386 17.7984 6.64573 17.5778 6.72L17.5798 6.73144Z" fill="#262626"/>
<path d="M28.1739 13.0132C29.1218 15.5579 25.0971 16.9856 25.2733 13.7279C25.4027 12.3134 27.4032 11.5253 28.1363 12.9308L28.1739 13.0132Z" fill="#E4E4E4"/>
<path d="M19.109 14.3866C19.935 14.3288 20.5533 13.5498 20.4902 12.6465C20.427 11.7433 19.7062 11.0579 18.8803 11.1156C18.0543 11.1734 17.436 11.9524 17.4991 12.8557C17.5623 13.7589 18.2831 14.4443 19.109 14.3866Z" fill="#E4E4E4"/>
<path d="M27.877 26H24.6436C24.5575 26 24.4798 26.0582 24.4575 26.1413C23.6997 28.9615 29.3245 28.9529 28.0548 26.1154C28.0238 26.0462 27.9528 26 27.877 26Z" fill="white" stroke="#262626"/>
<path d="M11.3652 26H14.5986C14.6847 26 14.7624 26.0582 14.7847 26.1413C15.5424 28.9615 9.91771 28.9529 11.1874 26.1154C11.2183 26.0462 11.2894 26 11.3652 26Z" fill="white" stroke="#262626"/>
<path d="M18 29H21" stroke="#262626" stroke-linecap="round"/>
</svg>
