<svg width="80" height="64" viewBox="0 0 80 64" fill="none" xmlns="http://www.w3.org/2000/svg">
<path d="M67.3569 42.4384C67.3969 41.9534 67.592 41.5134 68.057 41.1534C68.662 40.6834 69.4969 40.5934 70.2619 40.7184C71.8769 40.9784 73.2569 42.0834 73.7569 43.6884C73.9319 44.2434 73.9919 44.8384 73.9219 45.4034C73.8619 45.8834 73.682 46.3384 73.432 46.7384C73.307 46.9384 73.1469 47.1034 73.0119 47.2934C72.9319 47.4084 72.8469 47.6034 73.0119 47.7034C74.7719 48.7784 75.4569 50.8934 74.6019 53.0434C73.0269 56.9884 66.002 56.2184 64.737 53.4234C64.392 52.6584 65.1019 51.8984 65.5869 51.4384C66.1969 50.8534 67.0519 50.4284 67.5869 49.7584C67.8469 49.4334 68.0219 49.0434 68.1219 48.6384C68.2719 48.0234 68.2619 47.3734 68.1919 46.7334C68.1069 45.9234 67.9419 45.1184 67.6969 44.3334C67.4969 43.7034 67.312 43.0434 67.362 42.4384H67.3569Z" fill="#2F1A1A"/>
<path fill-rule="evenodd" clip-rule="evenodd" d="M50.743 16.5994C45.8147 14.2974 40.3177 13.5199 34.7801 14.0382C25.7224 14.9072 16.651 18.9928 11.4655 27.7739C8.94719 32.0425 7.66095 37.058 6.97045 42.0889C6.3341 46.7691 6.44242 51.9828 9.0555 55.9465C10.0439 57.4405 11.7363 58.2637 13.2662 58.7973C16.5427 59.9407 20.0223 59.8949 23.4207 59.8797C30.407 59.8492 37.4068 59.773 44.393 59.6205C51.1627 59.4681 59.2727 59.651 65.0811 55.2147C68.6825 52.4707 68.9262 45.4885 68.4794 41.1437C67.8295 34.9238 64.2145 28.7953 60.5454 24.2981C57.7292 20.8375 54.3986 18.3068 50.7565 16.5994H50.743Z" fill="#FFFCF1"/>
<path d="M49.6159 8.15722C57.7636 4.37541 59.221 13.1072 54.572 18.9658C52.1825 22.3464 46.0353 26.2698 42.9909 22.3877L42.9255 22.2939V22.2881C40.2175 17.9163 44.8194 10.5762 49.6159 8.15722ZM26.654 7.36718C29.5862 1.08391 34.9725 3.56133 36.5065 9.16015C37.3089 12.0983 37.321 15.3316 36.3239 18.2344C35.8047 19.7506 34.8838 21.2849 33.4147 22.0342C32.418 22.5413 31.4625 22.606 30.5837 22.3643L30.5896 22.3701C28.5129 21.7979 26.8842 19.5267 26.2233 17.4678C25.2204 14.3349 25.2029 10.4641 26.6188 7.44336C26.6306 7.41989 26.6423 7.39066 26.654 7.36718Z" fill="#2F1A1A"/>
<path d="M45.1677 17.0479C46.1689 15.3379 47.8055 14.4784 48.8229 15.1279C49.8401 15.7777 49.8532 17.6904 48.8522 19.4004C47.851 21.1106 46.2145 21.9709 45.197 21.3213C44.1794 20.6717 44.1664 18.7581 45.1677 17.0479ZM31.8054 13.002C32.9616 12.9368 33.9741 14.3261 34.0661 16.1045C34.158 17.883 33.2947 19.3782 32.1384 19.4434C30.9821 19.5084 29.9706 18.1192 29.8786 16.3408C29.7867 14.5624 30.6492 13.0673 31.8054 13.002Z" fill="#FEFEFE"/>
<path d="M17.4727 43.97C27.806 47.1107 42.5994 46.4854 56.5768 42.6043C63.5271 41.5046 65.8618 50.6244 64.6438 52.9984C60.1138 59.0967 19.8476 60.839 11.7944 55.1763C6.14575 50.6674 11.2163 41.2432 14.4527 42.2277L17.4727 43.97Z" fill="#FAF6E5"/>
<path d="M40.5508 40.2246C43.2293 35.1341 50.0775 39.2794 47.6103 43.833C44.82 48.3113 38.5992 44.6814 40.4883 40.3642L40.5508 40.2246ZM19.0996 39.1259C20.0879 37.2693 22.5149 36.2843 24.5117 37.2792C27.2751 38.6598 27.1338 42.3466 24.8545 44.0107L24.7334 44.1025V44.0966C20.7935 46.7181 17.197 42.2133 19.0996 39.1259Z" fill="#2F1A1A"/>
<path d="M14.6553 58.3538C14.3859 55.3895 19.0546 55.0464 17.9239 58.4329C17.3782 59.89 15.0383 60.1485 14.667 58.4495L14.6504 58.3538H14.6553ZM51.9307 53.886C54.8899 53.8185 55.1768 58.5441 51.8126 57.1771C50.3669 56.5301 50.142 54.1502 51.835 53.8968L51.9307 53.886ZM6.02252 47.764C6.66948 45.0692 10.8383 46.2451 8.84673 48.8724C7.94085 49.9802 5.82622 49.4626 6.01177 47.8538L6.02838 47.764H6.02252ZM62.8848 42.9212C65.9957 42.4152 66.71 47.3263 63.042 46.3812C61.4669 45.9141 61.0168 43.4556 62.7833 42.9437L62.8848 42.9212ZM9.56548 28.1439C10.4302 27.6406 11.5851 28.0126 12.1446 28.9739C12.7039 29.9352 12.4563 31.122 11.5919 31.6253C10.7272 32.1286 9.57227 31.7576 9.01275 30.7962C8.4533 29.8349 8.70083 28.6471 9.56548 28.1439ZM59.0879 23.7073C59.493 22.1096 61.9286 21.5698 62.5137 23.3138L62.542 23.4144C63.1665 26.5029 58.2948 27.409 59.0879 23.7073ZM20.2549 18.9583C19.1526 17.8613 19.597 15.5718 21.1719 15.9202L21.2569 15.9427C23.8952 16.8992 22.8653 21.3886 20.2549 18.9583Z" fill="#2F1A1A"/>
</svg>
