<svg width="80" height="80" viewBox="0 0 80 80" fill="none" xmlns="http://www.w3.org/2000/svg">
<path d="M65.2113 44.771C65.2513 44.286 65.4463 43.846 65.9113 43.486C66.5163 43.016 67.3513 42.926 68.1163 43.051C69.7313 43.311 71.1113 44.416 71.6113 46.021C71.7863 46.576 71.8463 47.171 71.7763 47.736C71.7163 48.216 71.5363 48.671 71.2863 49.071C71.1613 49.271 71.0013 49.436 70.8663 49.626C70.7863 49.741 70.7013 49.936 70.8663 50.036C72.6263 51.111 73.3113 53.226 72.4563 55.376C70.8813 59.321 63.8563 58.551 62.5913 55.756C62.2463 54.991 62.9563 54.231 63.4413 53.771C64.0513 53.186 64.9063 52.761 65.4413 52.091C65.7013 51.766 65.8763 51.376 65.9763 50.971C66.1263 50.356 66.1163 49.706 66.0463 49.066C65.9613 48.256 65.7963 47.451 65.5513 46.666C65.3513 46.036 65.1663 45.376 65.2163 44.771H65.2113Z" fill="#262626"/>
<path d="M65.6012 44.1284L65.3874 43.9987L65.6012 44.1284ZM65.9023 43.7168L65.7135 43.553L65.9023 43.7168ZM66.2448 43.3219L66.0559 43.1581L66.2448 43.3219ZM66.9466 43.0087L66.8934 42.7645V42.7645L66.9466 43.0087ZM67.7338 42.9763L67.811 42.7385L67.7338 42.9763ZM68.2469 43.1427L68.1697 43.3805L68.2469 43.1427ZM68.7728 43.2666L68.7355 43.5138L68.7728 43.2666ZM69.781 43.5714L69.6124 43.7559L69.781 43.5714ZM70.1813 43.937L70.3499 43.7525L70.1813 43.937ZM70.5223 44.3411L70.7332 44.2069V44.2069L70.5223 44.3411ZM70.804 44.7835L71.0149 44.6493L70.804 44.7835ZM71.1245 45.2083L70.9371 45.3738L71.1245 45.2083ZM71.484 45.6154L71.6714 45.4499L71.484 45.6154ZM71.6693 46.0889L71.4194 46.094L71.6693 46.0889ZM71.6804 46.6287L71.9303 46.6235L71.6804 46.6287ZM71.6628 47.1527L71.4138 47.13L71.6628 47.1527ZM71.6166 47.6608L71.8655 47.6835L71.6166 47.6608ZM71.5225 48.1607L71.7627 48.2301L71.5225 48.1607ZM71.3805 48.6524L71.1403 48.583L71.3805 48.6524ZM71.1539 49.1199L70.9493 48.9762L71.1539 49.1199ZM70.9982 49.3416L71.2028 49.4852L70.9982 49.3416ZM70.8425 49.5633L70.6379 49.4196L70.8425 49.5633ZM70.8619 49.9986L71.0553 49.8401L70.8619 49.9986ZM71.037 50.2122L70.8436 50.3706L71.037 50.2122ZM71.212 50.4258L71.4054 50.2673L71.212 50.4258ZM71.5945 50.8041L71.4391 50.9999L71.5945 50.8041ZM71.8019 50.9687L71.9574 50.7729L71.8019 50.9687ZM72.0093 51.1334L71.8539 51.3292L72.0093 51.1334ZM72.2787 51.5556L72.0356 51.614L72.2787 51.5556ZM72.3405 51.8131L72.5836 51.7547L72.3405 51.8131ZM72.4024 52.0706L72.6455 52.0122L72.4024 52.0706ZM72.5498 52.5753L72.3135 52.6569L72.5498 52.5753ZM72.6352 52.8224L72.8715 52.7407L72.6352 52.8224ZM72.7207 53.0696L72.957 52.9879L72.7207 53.0696ZM72.8356 53.5885L72.5871 53.6155L72.8356 53.5885ZM72.8946 54.1321L72.646 54.1591L72.8946 54.1321ZM72.7902 54.6437L73.0085 54.7655L72.7902 54.6437ZM72.6563 54.8834L72.8746 55.0053L72.6563 54.8834ZM72.5225 55.1232L72.3042 55.0013L72.5225 55.1232ZM72.2317 55.5665L72.0337 55.4139L72.2317 55.5665ZM72.0747 55.7702L72.2727 55.9228L72.0747 55.7702ZM71.9178 55.9738L71.7198 55.8212L71.9178 55.9738ZM71.5843 56.3557L71.4067 56.1798L71.5843 56.3557ZM71.2313 56.7124L71.409 56.8882L71.2313 56.7124ZM70.8753 57.1084L70.6824 56.9494L70.8753 57.1084ZM70.6959 57.3261L70.8888 57.4851L70.6959 57.3261ZM70.5164 57.5438L70.3235 57.3848L70.5164 57.5438ZM70.0615 57.7832L70.0419 57.534L70.0615 57.7832ZM69.5105 57.8265L69.5301 58.0757L69.5105 57.8265ZM68.9747 57.8767L68.9474 57.6282L68.9747 57.8767ZM68.4541 57.9339L68.4814 58.1824L68.4541 57.9339ZM67.6709 57.9787L67.6787 58.2286L67.6709 57.9787ZM67.4095 57.9868L67.4017 57.737L67.4095 57.9868ZM66.882 57.9944L66.8815 58.2444L66.882 57.9944ZM66.616 57.9938L66.6154 58.2438V58.2438L66.616 57.9938ZM66.3499 57.9932L66.3494 58.2432L66.3499 57.9932ZM65.8405 57.8839L65.7386 58.1121L65.8405 57.8839ZM65.3538 57.6665L65.2519 57.8947L65.3538 57.6665ZM64.8374 57.5182L64.8016 57.7656L64.8374 57.5182ZM64.2912 57.4391L64.327 57.1917L64.2912 57.4391ZM63.5772 57.0731L63.4285 57.274L63.5772 57.0731ZM63.3568 56.9099L63.5056 56.709L63.3568 56.9099ZM63.0288 56.4967L62.7992 56.5955V56.5955L63.0288 56.4967ZM62.8137 55.9968L63.0433 55.8979L62.8137 55.9968ZM62.737 55.5258L62.4894 55.4912L62.737 55.5258ZM62.7678 55.3047L63.0154 55.3393L62.7678 55.3047ZM62.9197 54.608L63.1554 54.6914L62.9197 54.608ZM63.1001 54.0987L62.8644 54.0152L63.1001 54.0987ZM63.4347 53.7227L63.5458 53.9466L63.4347 53.7227ZM63.9235 53.4801L63.8124 53.2561L63.9235 53.4801ZM64.3291 53.1358L64.5317 53.2823L64.3291 53.1358ZM64.4902 52.9129L64.2876 52.7665L64.4902 52.9129ZM64.6513 52.69L64.8539 52.8365L64.6513 52.69ZM65.0563 52.3286L64.9328 52.1112L65.0563 52.3286ZM65.5441 52.0514L65.4206 51.834L65.5441 52.0514ZM65.8286 51.6398L65.5813 51.6031L65.8286 51.6398ZM65.8691 51.3668L66.1164 51.4036L65.8691 51.3668ZM65.9097 51.0938L65.6624 51.0571L65.9097 51.0938ZM66.0154 50.0397L65.7662 50.0189L66.0154 50.0397ZM65.9832 49.5212L65.7385 49.5723L65.9832 49.5212ZM65.8755 49.0051L66.1202 48.954L65.8755 49.0051ZM65.864 48.4706L65.6169 48.4327L65.864 48.4706ZM65.9064 48.1942L66.1535 48.2321L65.9064 48.1942ZM65.9488 47.9178L65.7017 47.8799L65.9488 47.9178ZM65.8383 47.4081L65.6292 47.5452L65.8383 47.4081ZM65.6854 47.1749L65.8945 47.0378L65.6854 47.1749ZM65.5325 46.9417L65.3234 47.0787L65.5325 46.9417ZM65.4011 46.4303L65.1519 46.411L65.4011 46.4303ZM65.4441 45.874L65.1948 45.8547L65.4441 45.874ZM65.402 45.4185L65.6373 45.3341L65.402 45.4185ZM65.3384 45.2412L65.1031 45.3256L65.3384 45.2412ZM65.3412 44.5568L65.555 44.6865L65.3412 44.5568ZM65.4712 44.3426L65.6849 44.4723L65.8149 44.2581L65.6012 44.1284L65.3874 43.9987L65.2575 44.2129L65.4712 44.3426ZM65.6012 44.1284L65.8149 44.2581C65.8939 44.1278 65.9859 44.002 66.0912 43.8805L65.9023 43.7168L65.7135 43.553C65.5905 43.6948 65.4817 43.8434 65.3874 43.9987L65.6012 44.1284ZM65.9023 43.7168L66.0912 43.8805L66.2624 43.6831L66.0735 43.5193L65.8847 43.3555L65.7135 43.553L65.9023 43.7168ZM66.0735 43.5193L66.2624 43.6831L66.4336 43.4856L66.2448 43.3219L66.0559 43.1581L65.8847 43.3555L66.0735 43.5193ZM66.2448 43.3219L66.4336 43.4856C66.511 43.3964 66.6082 43.3384 66.7345 43.3108L66.6813 43.0666L66.628 42.8223C66.4007 42.8719 66.2068 42.984 66.0559 43.1581L66.2448 43.3219ZM66.6813 43.0666L66.7345 43.3108L66.9999 43.253L66.9466 43.0087L66.8934 42.7645L66.628 42.8223L66.6813 43.0666ZM66.9466 43.0087L66.9999 43.253L67.2652 43.1951L67.212 42.9509L67.1587 42.7066L66.8934 42.7645L66.9466 43.0087ZM67.212 42.9509L67.2652 43.1951C67.3992 43.166 67.5281 43.1724 67.6567 43.2141L67.7338 42.9763L67.811 42.7385C67.5975 42.6692 67.3786 42.6587 67.1587 42.7066L67.212 42.9509ZM67.7338 42.9763L67.6567 43.2141L67.9132 43.2973L67.9904 43.0595L68.0675 42.8217L67.811 42.7385L67.7338 42.9763ZM67.9904 43.0595L67.9132 43.2973L68.1697 43.3805L68.2469 43.1427L68.324 42.9049L68.0675 42.8217L67.9904 43.0595ZM68.2469 43.1427L68.1697 43.3805C68.3539 43.4403 68.5425 43.4847 68.7355 43.5138L68.7728 43.2666L68.8101 43.0194C68.6439 42.9943 68.4819 42.9562 68.324 42.9049L68.2469 43.1427ZM68.7728 43.2666L68.7355 43.5138L69.0048 43.5544L69.0421 43.3072L69.0794 43.06L68.8101 43.0194L68.7728 43.2666ZM69.0421 43.3072L69.0048 43.5544L69.2742 43.5951L69.3115 43.3479L69.3488 43.1007L69.0794 43.06L69.0421 43.3072ZM69.3115 43.3479L69.2742 43.5951C69.405 43.6148 69.5157 43.6676 69.6124 43.7559L69.781 43.5714L69.9496 43.3868C69.7794 43.2313 69.5771 43.1351 69.3488 43.1007L69.3115 43.3479ZM69.781 43.5714L69.6124 43.7559L69.8125 43.9388L69.9812 43.7542L70.1498 43.5696L69.9496 43.3868L69.781 43.5714ZM69.9812 43.7542L69.8125 43.9388L70.0127 44.1216L70.1813 43.937L70.3499 43.7525L70.1498 43.5696L69.9812 43.7542ZM70.1813 43.937L70.0127 44.1216C70.1304 44.2292 70.2297 44.3471 70.3114 44.4754L70.5223 44.3411L70.7332 44.2069C70.6271 44.0402 70.4991 43.8887 70.3499 43.7525L70.1813 43.937ZM70.5223 44.3411L70.3114 44.4754L70.4522 44.6966L70.6631 44.5623L70.874 44.4281L70.7332 44.2069L70.5223 44.3411ZM70.6631 44.5623L70.4522 44.6966L70.5931 44.9178L70.804 44.7835L71.0149 44.6493L70.874 44.4281L70.6631 44.5623ZM70.804 44.7835L70.5931 44.9178C70.6942 45.0767 70.809 45.2287 70.9371 45.3738L71.1245 45.2083L71.3119 45.0428C71.2004 44.9166 71.1015 44.7854 71.0149 44.6493L70.804 44.7835ZM71.1245 45.2083L70.9371 45.3738L71.1169 45.5773L71.3043 45.4119L71.4917 45.2464L71.3119 45.0428L71.1245 45.2083ZM71.3043 45.4119L71.1169 45.5773L71.2966 45.7809L71.484 45.6154L71.6714 45.4499L71.4917 45.2464L71.3043 45.4119ZM71.484 45.6154L71.2966 45.7809C71.3776 45.8725 71.4169 45.9736 71.4194 46.094L71.6693 46.0889L71.9193 46.0837C71.9144 45.8442 71.8302 45.6297 71.6714 45.4499L71.484 45.6154ZM71.6693 46.0889L71.4194 46.094L71.4249 46.3639L71.6748 46.3588L71.9248 46.3536L71.9193 46.0837L71.6693 46.0889ZM71.6748 46.3588L71.4249 46.3639L71.4304 46.6338L71.6804 46.6287L71.9303 46.6235L71.9248 46.3536L71.6748 46.3588ZM71.6804 46.6287L71.4304 46.6338C71.4339 46.805 71.4283 46.9704 71.4138 47.13L71.6628 47.1527L71.9118 47.1753C71.9281 46.9962 71.9342 46.8122 71.9303 46.6235L71.6804 46.6287ZM71.6628 47.1527L71.4138 47.13L71.3907 47.3841L71.6397 47.4068L71.8887 47.4294L71.9118 47.1753L71.6628 47.1527ZM71.6397 47.4068L71.3907 47.3841L71.3676 47.6382L71.6166 47.6608L71.8655 47.6835L71.8887 47.4294L71.6397 47.4068ZM71.6166 47.6608L71.3676 47.6382C71.3536 47.7917 71.3252 47.9427 71.2823 48.0914L71.5225 48.1607L71.7627 48.2301C71.8144 48.051 71.8487 47.8687 71.8655 47.6835L71.6166 47.6608ZM71.5225 48.1607L71.2823 48.0914L71.2113 48.3372L71.4515 48.4066L71.6917 48.4759L71.7627 48.2301L71.5225 48.1607ZM71.4515 48.4066L71.2113 48.3372L71.1403 48.583L71.3805 48.6524L71.6207 48.7217L71.6917 48.4759L71.4515 48.4066ZM71.3805 48.6524L71.1403 48.583C71.1011 48.7188 71.0381 48.8497 70.9493 48.9762L71.1539 49.1199L71.3585 49.2635C71.4772 49.0945 71.5653 48.9137 71.6207 48.7217L71.3805 48.6524ZM71.1539 49.1199L70.9493 48.9762L70.7936 49.1979L70.9982 49.3416L71.2028 49.4852L71.3585 49.2635L71.1539 49.1199ZM70.9982 49.3416L70.7936 49.1979L70.6379 49.4196L70.8425 49.5633L71.0471 49.7069L71.2028 49.4852L70.9982 49.3416ZM70.8425 49.5633L70.6379 49.4196C70.5622 49.5275 70.5136 49.6541 70.5198 49.7941C70.526 49.9335 70.5853 50.0554 70.6686 50.157L70.8619 49.9986L71.0553 49.8401C71.0219 49.7993 71.0196 49.7775 71.0193 49.7718C71.0191 49.7667 71.0191 49.7468 71.0471 49.7069L70.8425 49.5633ZM70.8619 49.9986L70.6686 50.157L70.8436 50.3706L71.037 50.2122L71.2304 50.0537L71.0553 49.8401L70.8619 49.9986ZM71.037 50.2122L70.8436 50.3706L71.0187 50.5842L71.212 50.4258L71.4054 50.2673L71.2304 50.0537L71.037 50.2122ZM71.212 50.4258L71.0187 50.5842C71.1462 50.7398 71.2863 50.8786 71.4391 50.9999L71.5945 50.8041L71.75 50.6083C71.6262 50.51 71.5113 50.3966 71.4054 50.2673L71.212 50.4258ZM71.5945 50.8041L71.4391 50.9999L71.6465 51.1645L71.8019 50.9687L71.9574 50.7729L71.75 50.6083L71.5945 50.8041ZM71.8019 50.9687L71.6465 51.1645L71.8539 51.3292L72.0093 51.1334L72.1648 50.9376L71.9574 50.7729L71.8019 50.9687ZM72.0093 51.1334L71.8539 51.3292C71.9484 51.4042 72.0074 51.4966 72.0356 51.614L72.2787 51.5556L72.5217 51.4971C72.4674 51.2712 72.3468 51.0821 72.1648 50.9376L72.0093 51.1334ZM72.2787 51.5556L72.0356 51.614L72.0975 51.8715L72.3405 51.8131L72.5836 51.7547L72.5217 51.4971L72.2787 51.5556ZM72.3405 51.8131L72.0975 51.8715L72.1594 52.129L72.4024 52.0706L72.6455 52.0122L72.5836 51.7547L72.3405 51.8131ZM72.4024 52.0706L72.1594 52.129C72.2025 52.3084 72.2539 52.4844 72.3135 52.6569L72.5498 52.5753L72.7861 52.4936C72.7318 52.3365 72.6849 52.1761 72.6455 52.0122L72.4024 52.0706ZM72.5498 52.5753L72.3135 52.6569L72.399 52.9041L72.6352 52.8224L72.8715 52.7407L72.7861 52.4936L72.5498 52.5753ZM72.6352 52.8224L72.399 52.9041L72.4844 53.1512L72.7207 53.0696L72.957 52.9879L72.8715 52.7407L72.6352 52.8224ZM72.7207 53.0696L72.4844 53.1512C72.535 53.2975 72.5693 53.4521 72.5871 53.6155L72.8356 53.5885L73.0841 53.5616C73.0626 53.3626 73.0203 53.1711 72.957 52.9879L72.7207 53.0696ZM72.8356 53.5885L72.5871 53.6155L72.6165 53.8873L72.8651 53.8603L73.1136 53.8334L73.0841 53.5616L72.8356 53.5885ZM72.8651 53.8603L72.6165 53.8873L72.646 54.1591L72.8946 54.1321L73.1431 54.1052L73.1136 53.8334L72.8651 53.8603ZM72.8946 54.1321L72.646 54.1591C72.6601 54.2885 72.636 54.407 72.5719 54.5218L72.7902 54.6437L73.0085 54.7655C73.1229 54.5607 73.1684 54.3382 73.1431 54.1052L72.8946 54.1321ZM72.7902 54.6437L72.5719 54.5218L72.438 54.7616L72.6563 54.8834L72.8746 55.0053L73.0085 54.7655L72.7902 54.6437ZM72.6563 54.8834L72.438 54.7616L72.3042 55.0013L72.5225 55.1232L72.7408 55.245L72.8746 55.0053L72.6563 54.8834ZM72.5225 55.1232L72.3042 55.0013C72.2205 55.1511 72.1303 55.2885 72.0337 55.4139L72.2317 55.5665L72.4297 55.7192C72.5423 55.573 72.6459 55.4149 72.7408 55.245L72.5225 55.1232ZM72.2317 55.5665L72.0337 55.4139L71.8767 55.6175L72.0747 55.7702L72.2727 55.9228L72.4297 55.7192L72.2317 55.5665ZM72.0747 55.7702L71.8767 55.6175L71.7198 55.8212L71.9178 55.9738L72.1158 56.1264L72.2727 55.9228L72.0747 55.7702ZM71.9178 55.9738L71.7198 55.8212C71.6213 55.9489 71.5169 56.0685 71.4067 56.1798L71.5843 56.3557L71.762 56.5316C71.8871 56.4052 72.005 56.2701 72.1158 56.1264L71.9178 55.9738ZM71.5843 56.3557L71.4067 56.1798L71.2302 56.3582L71.4078 56.534L71.5855 56.7099L71.762 56.5316L71.5843 56.3557ZM71.4078 56.534L71.2302 56.3582L71.0536 56.5365L71.2313 56.7124L71.409 56.8882L71.5855 56.7099L71.4078 56.534ZM71.2313 56.7124L71.0536 56.5365C70.93 56.6614 70.8063 56.7991 70.6824 56.9494L70.8753 57.1084L71.0682 57.2674C71.1837 57.1274 71.2973 57.0011 71.409 56.8882L71.2313 56.7124ZM70.8753 57.1084L70.6824 56.9494L70.503 57.1671L70.6959 57.3261L70.8888 57.4851L71.0682 57.2674L70.8753 57.1084ZM70.6959 57.3261L70.503 57.1671L70.3235 57.3848L70.5164 57.5438L70.7093 57.7029L70.8888 57.4851L70.6959 57.3261ZM70.5164 57.5438L70.3235 57.3848C70.246 57.4789 70.1563 57.525 70.0419 57.534L70.0615 57.7832L70.081 58.0324C70.3339 58.0125 70.5475 57.8991 70.7093 57.7029L70.5164 57.5438ZM70.0615 57.7832L70.0419 57.534L69.7664 57.5556L69.786 57.8048L69.8056 58.0541L70.081 58.0324L70.0615 57.7832ZM69.786 57.8048L69.7664 57.5556L69.4909 57.5772L69.5105 57.8265L69.5301 58.0757L69.8056 58.0541L69.786 57.8048ZM69.5105 57.8265L69.4909 57.5772C69.3048 57.5919 69.1237 57.6088 68.9474 57.6282L68.9747 57.8767L69.002 58.1252C69.1729 58.1065 69.3489 58.09 69.5301 58.0757L69.5105 57.8265ZM68.9747 57.8767L68.9474 57.6282L68.6871 57.6568L68.7144 57.9053L68.7417 58.1538L69.002 58.1252L68.9747 57.8767ZM68.7144 57.9053L68.6871 57.6568L68.4268 57.6854L68.4541 57.9339L68.4814 58.1824L68.7417 58.1538L68.7144 57.9053ZM68.4541 57.9339L68.4268 57.6854C68.2597 57.7037 68.0923 57.7155 67.9246 57.7207L67.9323 57.9706L67.9401 58.2205C68.1209 58.2148 68.3013 58.2021 68.4814 58.1824L68.4541 57.9339ZM67.9323 57.9706L67.9246 57.7207L67.6631 57.7288L67.6709 57.9787L67.6787 58.2286L67.9401 58.2205L67.9323 57.9706ZM67.6709 57.9787L67.6631 57.7288L67.4017 57.737L67.4095 57.9868L67.4173 58.2367L67.6787 58.2286L67.6709 57.9787ZM67.4095 57.9868L67.4017 57.737C67.2303 57.7423 67.0572 57.7448 66.8826 57.7444L66.882 57.9944L66.8815 58.2444C67.0616 58.2448 67.2402 58.2422 67.4173 58.2367L67.4095 57.9868ZM66.882 57.9944L66.8826 57.7444L66.6165 57.7438L66.616 57.9938L66.6154 58.2438L66.8815 58.2444L66.882 57.9944ZM66.616 57.9938L66.6165 57.7438L66.3505 57.7432L66.3499 57.9932L66.3494 58.2432L66.6154 58.2438L66.616 57.9938ZM66.3499 57.9932L66.3505 57.7432C66.2081 57.7429 66.0729 57.7139 65.9425 57.6556L65.8405 57.8839L65.7386 58.1121C65.9326 58.1988 66.137 58.2427 66.3494 58.2432L66.3499 57.9932ZM65.8405 57.8839L65.9425 57.6556L65.6991 57.5469L65.5972 57.7752L65.4952 58.0034L65.7386 58.1121L65.8405 57.8839ZM65.5972 57.7752L65.6991 57.5469L65.4558 57.4382L65.3538 57.6665L65.2519 57.8947L65.4952 58.0034L65.5972 57.7752ZM65.3538 57.6665L65.4558 57.4382C65.2718 57.356 65.0773 57.3003 64.8732 57.2708L64.8374 57.5182L64.8016 57.7656C64.9616 57.7888 65.1114 57.832 65.2519 57.8947L65.3538 57.6665ZM64.8374 57.5182L64.8732 57.2708L64.6001 57.2312L64.5643 57.4787L64.5285 57.7261L64.8016 57.7656L64.8374 57.5182ZM64.5643 57.4787L64.6001 57.2312L64.327 57.1917L64.2912 57.4391L64.2554 57.6865L64.5285 57.7261L64.5643 57.4787ZM64.2912 57.4391L64.327 57.1917C64.1856 57.1712 64.06 57.1195 63.9465 57.0354L63.7977 57.2363L63.6489 57.4372C63.8293 57.5708 64.0326 57.6543 64.2554 57.6865L64.2912 57.4391ZM63.7977 57.2363L63.9465 57.0354L63.726 56.8722L63.5772 57.0731L63.4285 57.274L63.6489 57.4372L63.7977 57.2363ZM63.5772 57.0731L63.726 56.8722L63.5056 56.709L63.3568 56.9099L63.208 57.1108L63.4285 57.274L63.5772 57.0731ZM63.3568 56.9099L63.5056 56.709C63.3939 56.6262 63.3126 56.5236 63.2585 56.3978L63.0288 56.4967L62.7992 56.5955C62.8885 56.803 63.0259 56.9759 63.208 57.1108L63.3568 56.9099ZM63.0288 56.4967L63.2585 56.3978L63.1509 56.1479L62.9213 56.2467L62.6916 56.3456L62.7992 56.5955L63.0288 56.4967ZM62.9213 56.2467L63.1509 56.1479L63.0433 55.8979L62.8137 55.9968L62.584 56.0956L62.6916 56.3456L62.9213 56.2467ZM62.8137 55.9968L63.0433 55.8979C62.9857 55.7641 62.9716 55.6534 62.9846 55.5604L62.737 55.5258L62.4894 55.4912C62.4612 55.6929 62.4982 55.8962 62.584 56.0956L62.8137 55.9968ZM62.737 55.5258L62.9846 55.5604L63.0154 55.3393L62.7678 55.3047L62.5202 55.2702L62.4894 55.4912L62.737 55.5258ZM62.7678 55.3047L63.0154 55.3393L63.0463 55.1183L62.7987 55.0837L62.5511 55.0491L62.5202 55.2702L62.7678 55.3047ZM62.7987 55.0837L63.0463 55.1183C63.0641 54.9906 63.0997 54.8486 63.1554 54.6914L62.9197 54.608L62.6841 54.5245C62.6195 54.707 62.5744 54.8821 62.5511 55.0491L62.7987 55.0837ZM62.9197 54.608L63.1554 54.6914L63.2456 54.4368L63.0099 54.3533L62.7742 54.2699L62.6841 54.5245L62.9197 54.608ZM63.0099 54.3533L63.2456 54.4368L63.3357 54.1821L63.1001 54.0987L62.8644 54.0152L62.7742 54.2699L63.0099 54.3533ZM63.1001 54.0987L63.3357 54.1821C63.3739 54.0742 63.4404 53.9989 63.5458 53.9466L63.4347 53.7227L63.3235 53.4987C63.103 53.6082 62.9464 53.7835 62.8644 54.0152L63.1001 54.0987ZM63.4347 53.7227L63.5458 53.9466L63.7902 53.8253L63.6791 53.6014L63.568 53.3774L63.3235 53.4987L63.4347 53.7227ZM63.6791 53.6014L63.7902 53.8253L64.0347 53.704L63.9235 53.4801L63.8124 53.2561L63.568 53.3774L63.6791 53.6014ZM63.9235 53.4801L64.0347 53.704C64.2342 53.6049 64.4007 53.4635 64.5317 53.2823L64.3291 53.1358L64.1264 52.9894C64.0426 53.1054 63.9387 53.1934 63.8124 53.2561L63.9235 53.4801ZM64.3291 53.1358L64.5317 53.2823L64.6928 53.0594L64.4902 52.9129L64.2876 52.7665L64.1264 52.9894L64.3291 53.1358ZM64.4902 52.9129L64.6928 53.0594L64.8539 52.8365L64.6513 52.69L64.4487 52.5436L64.2876 52.7665L64.4902 52.9129ZM64.6513 52.69L64.8539 52.8365C64.9399 52.7175 65.0477 52.621 65.1798 52.5459L65.0563 52.3286L64.9328 52.1112C64.7397 52.2209 64.5775 52.3654 64.4487 52.5436L64.6513 52.69ZM65.0563 52.3286L65.1798 52.5459L65.4237 52.4074L65.3002 52.19L65.1767 51.9726L64.9328 52.1112L65.0563 52.3286ZM65.3002 52.19L65.4237 52.4074L65.6676 52.2688L65.5441 52.0514L65.4206 51.834L65.1767 51.9726L65.3002 52.19ZM65.5441 52.0514L65.6676 52.2688C65.8958 52.1392 66.0373 51.9361 66.0759 51.6766L65.8286 51.6398L65.5813 51.6031C65.5658 51.7076 65.5177 51.7789 65.4206 51.834L65.5441 52.0514ZM65.8286 51.6398L66.0759 51.6766L66.1164 51.4036L65.8691 51.3668L65.6218 51.3301L65.5813 51.6031L65.8286 51.6398ZM65.8691 51.3668L66.1164 51.4036L66.157 51.1306L65.9097 51.0938L65.6624 51.0571L65.6218 51.3301L65.8691 51.3668ZM65.9097 51.0938L66.157 51.1306C66.1847 50.9436 66.2061 50.7604 66.2211 50.5812L65.9719 50.5605L65.7228 50.5397C65.7088 50.7077 65.6887 50.8801 65.6624 51.0571L65.9097 51.0938ZM65.9719 50.5605L66.2211 50.5812L66.2428 50.3208L65.9936 50.3001L65.7445 50.2793L65.7228 50.5397L65.9719 50.5605ZM65.9936 50.3001L66.2428 50.3208L66.2645 50.0604L66.0154 50.0397L65.7662 50.0189L65.7445 50.2793L65.9936 50.3001ZM66.0154 50.0397L66.2645 50.0604C66.281 49.8626 66.2687 49.6656 66.2279 49.4701L65.9832 49.5212L65.7385 49.5723C65.7695 49.7209 65.7787 49.8696 65.7662 50.0189L66.0154 50.0397ZM65.9832 49.5212L66.2279 49.4701L66.1741 49.2121L65.9293 49.2631L65.6846 49.3142L65.7385 49.5723L65.9832 49.5212ZM65.9293 49.2631L66.1741 49.2121L66.1202 48.954L65.8755 49.0051L65.6307 49.0561L65.6846 49.3142L65.9293 49.2631ZM65.8755 49.0051L66.1202 48.954C66.0908 48.8129 66.0871 48.665 66.1111 48.5085L65.864 48.4706L65.6169 48.4327C65.5844 48.6447 65.5884 48.8531 65.6307 49.0561L65.8755 49.0051ZM65.864 48.4706L66.1111 48.5085L66.1535 48.2321L65.9064 48.1942L65.6593 48.1563L65.6169 48.4327L65.864 48.4706ZM65.9064 48.1942L66.1535 48.2321L66.1959 47.9556L65.9488 47.9178L65.7017 47.8799L65.6593 48.1563L65.9064 48.1942ZM65.9488 47.9178L66.1959 47.9556C66.2335 47.7105 66.1832 47.4783 66.0474 47.2711L65.8383 47.4081L65.6292 47.5452C65.6972 47.6489 65.7206 47.7564 65.7017 47.8799L65.9488 47.9178ZM65.8383 47.4081L66.0474 47.2711L65.8945 47.0378L65.6854 47.1749L65.4763 47.3119L65.6292 47.5452L65.8383 47.4081ZM65.6854 47.1749L65.8945 47.0378L65.7416 46.8046L65.5325 46.9417L65.3234 47.0787L65.4763 47.3119L65.6854 47.1749ZM65.5325 46.9417L65.7416 46.8046C65.67 46.6954 65.6403 46.5799 65.6504 46.4495L65.4011 46.4303L65.1519 46.411C65.1333 46.6516 65.1912 46.877 65.3234 47.0787L65.5325 46.9417ZM65.4011 46.4303L65.6504 46.4495L65.6718 46.1714L65.4226 46.1521L65.1733 46.1329L65.1519 46.411L65.4011 46.4303ZM65.4226 46.1521L65.6718 46.1714L65.6933 45.8932L65.4441 45.874L65.1948 45.8547L65.1733 46.1329L65.4226 46.1521ZM65.4441 45.874L65.6933 45.8932C65.7091 45.6881 65.6959 45.4975 65.6373 45.3341L65.402 45.4185L65.1666 45.5029C65.1928 45.5759 65.2076 45.689 65.1948 45.8547L65.4441 45.874ZM65.402 45.4185L65.6373 45.3341L65.5737 45.1569L65.3384 45.2412L65.1031 45.3256L65.1666 45.5029L65.402 45.4185ZM65.3384 45.2412L65.5737 45.1569L65.5102 44.9796L65.2748 45.064L65.0395 45.1483L65.1031 45.3256L65.3384 45.2412ZM65.2748 45.064L65.5102 44.9796C65.4895 44.9218 65.475 44.8792 65.4661 44.8501C65.4615 44.8354 65.4592 44.8268 65.4583 44.823C65.4578 44.8211 65.4582 44.8224 65.4588 44.826C65.4592 44.828 65.4613 44.8403 65.4613 44.8578H65.2113H64.9613C64.9613 44.8951 64.9694 44.9286 64.9722 44.94C64.9765 44.9582 64.9822 44.9778 64.9882 44.9974C65.0005 45.0371 65.0178 45.0879 65.0395 45.1483L65.2748 45.064ZM65.2113 44.8578H65.4613V44.8288H65.2113H64.9613V44.8578H65.2113ZM65.2113 44.8288H65.4613V44.7999H65.2113H64.9613V44.8288H65.2113ZM65.2113 44.7999H65.4613C65.4613 44.8206 65.4585 44.8365 65.4569 44.8448C65.4551 44.8538 65.4531 44.8606 65.4519 44.8643C65.4497 44.8713 65.4481 44.8748 65.4489 44.873C65.4503 44.8697 65.4548 44.8602 65.4642 44.8426C65.4827 44.808 65.5124 44.7566 65.555 44.6865L65.3412 44.5568L65.1275 44.4271C65.0834 44.4998 65.0481 44.5603 65.0233 44.6068C65.0111 44.6297 64.9993 44.653 64.9899 44.6748C64.9852 44.6855 64.9795 44.6996 64.9746 44.7154C64.9712 44.7264 64.9613 44.7589 64.9613 44.7999H65.2113ZM65.3412 44.5568L65.555 44.6865L65.6849 44.4723L65.4712 44.3426L65.2575 44.2129L65.1275 44.4271L65.3412 44.5568Z" fill="#262626"/>
<path d="M27.5825 25.4949C41.6375 21.5199 60.8625 29.1349 64.8175 43.7449C66.4275 49.6799 66.9925 59.1849 61.2875 63.3249C56.4775 66.8149 49.2925 67.6249 43.5025 68.0899C37.9625 68.5349 32.3875 68.3249 26.8725 67.7049C22.2125 67.1799 17.2025 65.9349 13.4975 62.8349C8.85248 58.9549 7.81748 52.6999 8.71248 46.9649C9.31748 43.0999 10.7475 39.3449 12.8225 36.0349C16.0775 30.8499 21.6025 27.1649 27.4775 25.5199L27.5775 25.4949H27.5825Z" fill="#FEFEFE"/>
<path d="M27.5825 25.4949H27.0825V26.1068L27.6821 25.9849L27.5825 25.4949ZM27.6805 25.475L27.6011 24.9813L27.5909 24.983L27.5808 24.985L27.6805 25.475ZM29.1426 25.2399L29.2219 25.7335L29.2366 25.7312L29.2512 25.7279L29.1426 25.2399ZM30.6793 24.8979L30.6241 24.401L30.5971 24.404L30.5706 24.4098L30.6793 24.8979ZM32.2445 24.7242L32.1971 24.2264L32.1894 24.2272L32.2445 24.7242ZM33.8126 24.5746L33.8049 24.0746L33.785 24.0749L33.7651 24.0768L33.8126 24.5746ZM35.388 24.5504L35.3957 25.0503L35.4205 25.0499L35.4452 25.0471L35.388 24.5504ZM36.973 24.368L36.9718 23.868L36.9437 23.8681L36.9158 23.8713L36.973 24.368ZM38.5654 24.3642L38.6838 23.8784L38.6248 23.864L38.5642 23.8642L38.5654 24.3642ZM40.1184 24.7426L40 25.2283L40.0435 25.2389L40.0881 25.2416L40.1184 24.7426ZM41.7086 24.8389L41.8966 24.3756L41.8207 24.3448L41.7389 24.3398L41.7086 24.8389ZM43.1987 25.4436L43.0107 25.9069L43.0605 25.9271L43.1135 25.9363L43.1987 25.4436ZM44.7589 25.7135L44.9716 25.2609L44.9106 25.2323L44.8441 25.2208L44.7589 25.7135ZM46.2007 26.3911L45.9881 26.8436L46.0486 26.8721L46.1146 26.8836L46.2007 26.3911ZM47.7753 26.6665L47.9807 26.2106L47.9234 26.1848L47.8615 26.174L47.7753 26.6665ZM49.2183 27.3166L49.0129 27.7725L49.0459 27.7873L49.0807 27.7973L49.2183 27.3166ZM50.7596 27.7578L51.0933 27.3854L51.0077 27.3087L50.8972 27.2771L50.7596 27.7578ZM51.9768 28.8486L51.6431 29.2209L51.729 29.298L51.8399 29.3295L51.9768 28.8486ZM53.5444 29.2945L53.88 28.9239L53.7934 28.8456L53.6812 28.8136L53.5444 29.2945ZM54.7345 30.372L54.399 30.7427L54.4117 30.7542L54.4251 30.7648L54.7345 30.372ZM55.9733 31.3479L56.3065 30.9751L56.2949 30.9647L56.2827 30.9551L55.9733 31.3479ZM57.1463 32.3963L56.8131 32.7691L56.8313 32.7854L56.8511 32.7999L57.1463 32.3963ZM58.4232 33.3305L58.7586 32.9596L58.7394 32.9422L58.7184 32.9269L58.4232 33.3305ZM59.5979 34.3926L59.9494 34.0371L59.9415 34.0292L59.9332 34.0217L59.5979 34.3926ZM60.73 35.5119L61.1921 35.321L61.1535 35.2275L61.0815 35.1564L60.73 35.5119ZM61.3534 37.0203L60.8913 37.2113L60.9287 37.3017L60.9974 37.3714L61.3534 37.0203ZM62.48 38.1627L62.8978 37.888L62.8707 37.8467L62.836 37.8116L62.48 38.1627ZM63.3549 39.4933L63.8175 39.3035L63.7992 39.2589L63.7727 39.2186L63.3549 39.4933ZM63.9593 40.9666L64.4227 40.7786L64.4219 40.7768L63.9593 40.9666ZM64.5564 42.4388L65.0514 42.3681L65.0427 42.3076L65.0198 42.2509L64.5564 42.4388ZM64.7824 44.0198L64.2875 44.0905L64.2887 44.0991L64.2902 44.1077L64.7824 44.0198ZM65.0596 45.5718L64.5674 45.6597L64.5751 45.7028L64.5902 45.7439L65.0596 45.5718ZM65.6101 47.0735L66.1017 46.9825L66.0941 46.941L66.0795 46.9014L65.6101 47.0735ZM65.8992 48.6357L66.3992 48.6329L66.399 48.5884L66.3909 48.5447L65.8992 48.6357ZM65.9082 50.2254L66.4082 50.2292L66.4081 50.2226L65.9082 50.2254ZM65.896 51.8069L65.396 51.8031L65.3959 51.8153L65.3964 51.8275L65.896 51.8069ZM65.9614 53.3924L66.4452 53.5184L66.464 53.4463L66.461 53.3718L65.9614 53.3924ZM65.5591 54.9376L65.0752 54.8116L65.0582 54.8768L65.0591 54.9442L65.5591 54.9376ZM65.5805 56.5484L66.0338 56.7593L66.082 56.6559L66.0805 56.5417L65.5805 56.5484ZM64.9041 58.0019L64.4508 57.7909L64.4382 57.8181L64.4289 57.8465L64.9041 58.0019ZM64.414 59.5016L64.8446 59.7556L64.8723 59.7087L64.8892 59.6569L64.414 59.5016ZM63.612 60.861L64.0211 61.1485L64.0325 61.1322L64.0427 61.115L63.612 60.861ZM62.701 62.1571L63.0338 62.5302L63.0769 62.4918L63.11 62.4446L62.701 62.1571ZM61.5165 63.2138L61.8003 63.6254L61.826 63.6077L61.8493 63.5869L61.5165 63.2138ZM60.2104 64.1143L60.4737 64.5394L60.4841 64.5329L60.4943 64.5259L60.2104 64.1143ZM58.8573 64.9523L59.0263 65.4229L59.0758 65.4051L59.1206 65.3774L58.8573 64.9523ZM57.3597 65.4899L57.5103 65.9666L57.5195 65.9637L57.5286 65.9605L57.3597 65.4899ZM55.8518 65.9661L55.9402 66.4582L55.9718 66.4525L56.0024 66.4428L55.8518 65.9661ZM54.2928 66.2462L54.2044 65.754L54.1476 65.7643L54.0946 65.7872L54.2928 66.2462ZM52.8259 66.8799L52.8994 67.3744L52.9641 67.3648L53.0242 67.3389L52.8259 66.8799ZM51.2604 67.1127L51.1869 66.6181L51.1438 66.6245L51.1025 66.6383L51.2604 67.1127ZM49.7407 67.6186L49.6983 68.1168L49.8009 68.1255L49.8987 68.093L49.7407 67.6186ZM48.1252 67.481L48.1677 66.9828L48.0807 66.9754L47.9964 66.9979L48.1252 67.481ZM46.5827 67.8924L46.6718 68.3844L46.6918 68.3808L46.7116 68.3755L46.5827 67.8924ZM45.0205 68.1752L45.0639 68.6733L45.0868 68.6713L45.1095 68.6672L45.0205 68.1752ZM43.4448 68.3125L43.452 68.8124L43.4701 68.8122L43.4882 68.8106L43.4448 68.3125ZM41.8589 68.3353L41.7684 68.827L41.8168 68.836L41.8661 68.8353L41.8589 68.3353ZM40.2646 68.0419L40.3551 67.5501L40.2845 67.5371L40.2131 67.5445L40.2646 68.0419ZM38.6918 68.2048L38.723 68.7038L38.7332 68.7032L38.7434 68.7021L38.6918 68.2048ZM37.1137 68.3033L37.1212 68.8032L37.1331 68.803L37.1449 68.8023L37.1137 68.3033ZM35.5333 68.3268L35.5206 68.8266L35.5307 68.8269L35.5408 68.8267L35.5333 68.3268ZM33.9534 68.2865L33.8775 68.7807L33.9089 68.7855L33.9406 68.7863L33.9534 68.2865ZM32.3842 68.0455L32.4601 67.5513L32.3905 67.5406L32.3205 67.5495L32.3842 68.0455ZM30.7868 68.2506L30.731 68.7475L30.7908 68.7542L30.8505 68.7465L30.7868 68.2506ZM29.2136 68.0739L29.2694 67.5769L29.2592 67.576L29.2136 68.0739ZM27.6382 67.9298L27.5919 68.4276L27.5926 68.4277L27.6382 67.9298ZM26.0609 67.7831L25.891 68.2534L25.951 68.2751L26.0146 68.281L26.0609 67.7831ZM24.5445 67.2354L24.7144 66.7651L24.6227 66.732L24.5252 66.7357L24.5445 67.2354ZM22.9224 67.2981L22.6762 67.7333L22.7998 67.8032L22.9417 67.7977L22.9224 67.2981ZM21.492 66.4889L21.7382 66.0537L21.6656 66.0127L21.5836 65.9974L21.492 66.4889ZM19.9389 66.1994L20.0306 65.7077L20.0204 65.7061L19.9389 66.1994ZM18.3475 65.9368L18.0698 66.3526L18.1596 66.4125L18.2661 66.4301L18.3475 65.9368ZM17.0091 65.0429L17.2868 64.6271L17.285 64.626L17.0091 65.0429ZM15.6948 64.1732L15.9707 63.7562L15.9331 63.7313L15.8916 63.7136L15.6948 64.1732ZM14.2213 63.5424L13.8615 63.8897L13.9317 63.9623L14.0245 64.0021L14.2213 63.5424ZM13.1158 62.397L13.4755 62.0497L13.4441 62.0171L13.4072 61.9907L13.1158 62.397ZM11.8056 61.457L11.397 61.7452L11.4456 61.8141L11.5141 61.8632L11.8056 61.457ZM10.8824 60.1483L10.4589 60.4142L10.4661 60.4255L10.4738 60.4365L10.8824 60.1483ZM10.0317 58.7935L9.56769 58.9798L9.58439 59.0214L9.60821 59.0593L10.0317 58.7935ZM9.43586 57.3103L8.97121 57.495L8.97189 57.4967L9.43586 57.3103ZM8.84454 55.8227L8.34539 55.8518L8.3501 55.9324L8.3799 56.0074L8.84454 55.8227ZM8.75064 54.2149L8.25075 54.2314L8.25149 54.2441L8.75064 54.2149ZM8.69853 52.6366L9.19826 52.6201L9.19643 52.5647L9.1825 52.511L8.69853 52.6366ZM8.29438 51.0795L7.79954 51.0078L7.78509 51.1076L7.81041 51.2051L8.29438 51.0795ZM8.52307 49.5012L8.02837 49.4286L8.02824 49.4295L8.52307 49.5012ZM8.75178 47.9431L9.24648 48.0157L9.25388 47.9653L9.25096 47.9144L8.75178 47.9431ZM8.65926 46.3329L8.20608 46.1217L8.15285 46.2359L8.16008 46.3616L8.65926 46.3329ZM9.34426 44.8636L9.79744 45.0748L9.8379 44.988L9.84343 44.8924L9.34426 44.8636ZM9.43723 43.2561L8.95136 43.138L8.94067 43.182L8.93806 43.2272L9.43723 43.2561ZM9.81361 41.7072L9.38838 41.4442L9.34654 41.5118L9.32775 41.5891L9.81361 41.7072ZM10.6615 40.3364L11.0867 40.5994L11.0922 40.5906L11.0973 40.5815L10.6615 40.3364ZM11.4354 38.96L11.8713 39.2051L11.9067 39.142L11.9228 39.0715L11.4354 38.96ZM11.7993 37.3698L11.4263 37.0368L11.3406 37.1328L11.3119 37.2582L11.7993 37.3698ZM12.8742 36.1657L13.2472 36.4987L13.2766 36.4658L13.2998 36.4281L12.8742 36.1657ZM13.7008 34.825L13.2762 34.5609L13.2752 34.5626L13.7008 34.825ZM14.5419 33.4728L14.175 33.1331L14.1426 33.1682L14.1174 33.2087L14.5419 33.4728ZM15.6208 32.3071L15.3132 31.913L15.2813 31.9378L15.2539 31.9674L15.6208 32.3071ZM16.8744 31.3284L17.1821 31.7225L17.1889 31.7172L17.1955 31.7116L16.8744 31.3284ZM18.0831 30.3157L18.4043 30.6989L18.4252 30.6814L18.4441 30.6616L18.0831 30.3157ZM19.1961 29.1543L18.9929 28.6975L18.9031 28.7374L18.8351 28.8084L19.1961 29.1543ZM20.6632 28.5019L20.8664 28.9588L20.8956 28.9458L20.9229 28.9292L20.6632 28.5019ZM22.0138 27.6813L21.8496 27.209L21.7995 27.2264L21.7542 27.254L22.0138 27.6813ZM23.5133 27.1597L23.6775 27.6319L23.7233 27.616L23.7651 27.5916L23.5133 27.1597ZM24.8854 26.3596L24.7359 25.8825L24.6821 25.8993L24.6335 25.9277L24.8854 26.3596ZM26.3938 25.8871L26.5432 26.3642L26.5763 26.3539L26.6075 26.3391L26.3938 25.8871ZM27.5825 25.3249H28.0825V24.5353L27.3687 24.8729L27.5825 25.3249ZM27.5825 25.4949L27.6821 25.9849L27.7801 25.965L27.6805 25.475L27.5808 24.985L27.4828 25.0049L27.5825 25.4949ZM27.6805 25.475L27.7599 25.9686L29.2219 25.7335L29.1426 25.2399L29.0632 24.7462L27.6011 24.9813L27.6805 25.475ZM29.1426 25.2399L29.2512 25.7279L30.7879 25.386L30.6793 24.8979L30.5706 24.4098L29.0339 24.7518L29.1426 25.2399ZM30.6793 24.8979L30.7344 25.3949L32.2997 25.2211L32.2445 24.7242L32.1894 24.2272L30.6241 24.401L30.6793 24.8979ZM32.2445 24.7242L32.292 25.2219L33.8601 25.0723L33.8126 24.5746L33.7651 24.0768L32.1971 24.2264L32.2445 24.7242ZM33.8126 24.5746L33.8203 25.0745L35.3957 25.0503L35.388 24.5504L35.3803 24.0504L33.8049 24.0746L33.8126 24.5746ZM35.388 24.5504L35.4452 25.0471L37.0301 24.8647L36.973 24.368L36.9158 23.8713L35.3309 24.0537L35.388 24.5504ZM36.973 24.368L36.9742 24.868L38.5666 24.8642L38.5654 24.3642L38.5642 23.8642L36.9718 23.868L36.973 24.368ZM38.5654 24.3642L38.4471 24.85L40 25.2283L40.1184 24.7426L40.2367 24.2568L38.6838 23.8784L38.5654 24.3642ZM40.1184 24.7426L40.0881 25.2416L41.6784 25.338L41.7086 24.8389L41.7389 24.3398L40.1486 24.2435L40.1184 24.7426ZM41.7086 24.8389L41.5206 25.3022L43.0107 25.9069L43.1987 25.4436L43.3867 24.9803L41.8966 24.3756L41.7086 24.8389ZM43.1987 25.4436L43.1135 25.9363L44.6737 26.2061L44.7589 25.7135L44.8441 25.2208L43.2839 24.9509L43.1987 25.4436ZM44.7589 25.7135L44.5462 26.166L45.9881 26.8436L46.2007 26.3911L46.4134 25.9386L44.9716 25.2609L44.7589 25.7135ZM46.2007 26.3911L46.1146 26.8836L47.6892 27.159L47.7753 26.6665L47.8615 26.174L46.2869 25.8986L46.2007 26.3911ZM47.7753 26.6665L47.57 27.1224L49.0129 27.7725L49.2183 27.3166L49.4237 26.8607L47.9807 26.2106L47.7753 26.6665ZM49.2183 27.3166L49.0807 27.7973L50.622 28.2385L50.7596 27.7578L50.8972 27.2771L49.3559 26.8359L49.2183 27.3166ZM50.7596 27.7578L50.4259 28.1301L51.6431 29.2209L51.9768 28.8486L52.3105 28.4763L51.0933 27.3854L50.7596 27.7578ZM51.9768 28.8486L51.8399 29.3295L53.4076 29.7755L53.5444 29.2945L53.6812 28.8136L52.1136 28.3677L51.9768 28.8486ZM53.5444 29.2945L53.2088 29.6652L54.399 30.7427L54.7345 30.372L55.0701 30.0014L53.88 28.9239L53.5444 29.2945ZM54.7345 30.372L54.4251 30.7648L55.6639 31.7407L55.9733 31.3479L56.2827 30.9551L55.044 29.9793L54.7345 30.372ZM55.9733 31.3479L55.6401 31.7207L56.8131 32.7691L57.1463 32.3963L57.4795 32.0235L56.3065 30.9751L55.9733 31.3479ZM57.1463 32.3963L56.8511 32.7999L58.128 33.734L58.4232 33.3305L58.7184 32.9269L57.4415 31.9928L57.1463 32.3963ZM58.4232 33.3305L58.0879 33.7013L59.2626 34.7635L59.5979 34.3926L59.9332 34.0217L58.7586 32.9596L58.4232 33.3305ZM59.5979 34.3926L59.2464 34.7482L60.3785 35.8675L60.73 35.5119L61.0815 35.1564L59.9494 34.0371L59.5979 34.3926ZM60.73 35.5119L60.2679 35.7029L60.8913 37.2113L61.3534 37.0203L61.8155 36.8293L61.1921 35.321L60.73 35.5119ZM61.3534 37.0203L60.9974 37.3714L62.124 38.5137L62.48 38.1627L62.836 37.8116L61.7094 36.6692L61.3534 37.0203ZM62.48 38.1627L62.0622 38.4373L62.9371 39.768L63.3549 39.4933L63.7727 39.2186L62.8978 37.888L62.48 38.1627ZM63.3549 39.4933L62.8923 39.6831L63.4967 41.1563L63.9593 40.9666L64.4219 40.7768L63.8175 39.3035L63.3549 39.4933ZM63.9593 40.9666L63.496 41.1545L64.0931 42.6268L64.5564 42.4388L65.0198 42.2509L64.4227 40.7786L63.9593 40.9666ZM64.5564 42.4388L64.0615 42.5096L64.2875 44.0905L64.7824 44.0198L65.2774 43.949L65.0514 42.3681L64.5564 42.4388ZM64.7824 44.0198L64.2902 44.1077L64.5674 45.6597L65.0596 45.5718L65.5518 45.4839L65.2746 43.9319L64.7824 44.0198ZM65.0596 45.5718L64.5902 45.7439L65.1406 47.2456L65.6101 47.0735L66.0795 46.9014L65.5291 45.3997L65.0596 45.5718ZM65.6101 47.0735L65.1184 47.1645L65.4076 48.7267L65.8992 48.6357L66.3909 48.5447L66.1017 46.9825L65.6101 47.0735ZM65.8992 48.6357L65.3992 48.6385L65.4082 50.2282L65.9082 50.2254L66.4081 50.2226L66.3992 48.6329L65.8992 48.6357ZM65.9082 50.2254L65.4082 50.2216L65.396 51.8031L65.896 51.8069L66.396 51.8108L66.4081 50.2292L65.9082 50.2254ZM65.896 51.8069L65.3964 51.8275L65.4618 53.413L65.9614 53.3924L66.461 53.3718L66.3956 51.7863L65.896 51.8069ZM65.9614 53.3924L65.4775 53.2664L65.0752 54.8116L65.5591 54.9376L66.0429 55.0636L66.4452 53.5184L65.9614 53.3924ZM65.5591 54.9376L65.0591 54.9442L65.0805 56.5551L65.5805 56.5484L66.0805 56.5417L66.059 54.9309L65.5591 54.9376ZM65.5805 56.5484L65.1272 56.3374L64.4508 57.7909L64.9041 58.0019L65.3575 58.2128L66.0338 56.7593L65.5805 56.5484ZM64.9041 58.0019L64.4289 57.8465L63.9387 59.3462L64.414 59.5016L64.8892 59.6569L65.3794 58.1572L64.9041 58.0019ZM64.414 59.5016L63.9833 59.2475L63.1814 60.607L63.612 60.861L64.0427 61.115L64.8446 59.7556L64.414 59.5016ZM63.612 60.861L63.203 60.5735L62.2919 61.8696L62.701 62.1571L63.11 62.4446L64.0211 61.1485L63.612 60.861ZM62.701 62.1571L62.3681 61.784L61.1836 62.8407L61.5165 63.2138L61.8493 63.5869L63.0338 62.5302L62.701 62.1571ZM61.5165 63.2138L61.2327 62.8021L59.9266 63.7027L60.2104 64.1143L60.4943 64.5259L61.8003 63.6254L61.5165 63.2138ZM60.2104 64.1143L59.9472 63.6892L58.5941 64.5272L58.8573 64.9523L59.1206 65.3774L60.4737 64.5394L60.2104 64.1143ZM58.8573 64.9523L58.6884 64.4817L57.1908 65.0193L57.3597 65.4899L57.5286 65.9605L59.0263 65.4229L58.8573 64.9523ZM57.3597 65.4899L57.2091 65.0131L55.7012 65.4893L55.8518 65.9661L56.0024 66.4428L57.5103 65.9666L57.3597 65.4899ZM55.8518 65.9661L55.7634 65.4739L54.2044 65.754L54.2928 66.2462L54.3813 66.7383L55.9402 66.4582L55.8518 65.9661ZM54.2928 66.2462L54.0946 65.7872L52.6276 66.4209L52.8259 66.8799L53.0242 67.3389L54.4911 66.7052L54.2928 66.2462ZM52.8259 66.8799L52.7523 66.3853L51.1869 66.6181L51.2604 67.1127L51.334 67.6072L52.8994 67.3744L52.8259 66.8799ZM51.2604 67.1127L51.1025 66.6383L49.5828 67.1442L49.7407 67.6186L49.8987 68.093L51.4184 67.5871L51.2604 67.1127ZM49.7407 67.6186L49.7832 67.1204L48.1677 66.9828L48.1252 67.481L48.0828 67.9792L49.6983 68.1168L49.7407 67.6186ZM48.1252 67.481L47.9964 66.9979L46.4539 67.4093L46.5827 67.8924L46.7116 68.3755L48.2541 67.9641L48.1252 67.481ZM46.5827 67.8924L46.4937 67.4004L44.9314 67.6831L45.0205 68.1752L45.1095 68.6672L46.6718 68.3844L46.5827 67.8924ZM45.0205 68.1752L44.977 67.677L43.4014 67.8144L43.4448 68.3125L43.4882 68.8106L45.0639 68.6733L45.0205 68.1752ZM43.4448 68.3125L43.4376 67.8125L41.8517 67.8354L41.8589 68.3353L41.8661 68.8353L43.452 68.8124L43.4448 68.3125ZM41.8589 68.3353L41.9494 67.8436L40.3551 67.5501L40.2646 68.0419L40.1741 68.5336L41.7684 68.827L41.8589 68.3353ZM40.2646 68.0419L40.2131 67.5445L38.6403 67.7074L38.6918 68.2048L38.7434 68.7021L40.3161 68.5392L40.2646 68.0419ZM38.6918 68.2048L38.6607 67.7058L37.0826 67.8042L37.1137 68.3033L37.1449 68.8023L38.723 68.7038L38.6918 68.2048ZM37.1137 68.3033L37.1063 67.8033L35.5259 67.8269L35.5333 68.3268L35.5408 68.8267L37.1212 68.8032L37.1137 68.3033ZM35.5333 68.3268L35.5461 67.827L33.9661 67.7867L33.9534 68.2865L33.9406 68.7863L35.5206 68.8266L35.5333 68.3268ZM33.9534 68.2865L34.0293 67.7923L32.4601 67.5513L32.3842 68.0455L32.3083 68.5397L33.8775 68.7807L33.9534 68.2865ZM32.3842 68.0455L32.3205 67.5495L30.7231 67.7547L30.7868 68.2506L30.8505 68.7465L32.4479 68.5414L32.3842 68.0455ZM30.7868 68.2506L30.8426 67.7537L29.2694 67.577L29.2136 68.0739L29.1578 68.5708L30.731 68.7475L30.7868 68.2506ZM29.2136 68.0739L29.2592 67.576L27.6837 67.4319L27.6382 67.9298L27.5926 68.4277L29.1681 68.5718L29.2136 68.0739ZM27.6382 67.9298L27.6845 67.4319L26.1072 67.2853L26.0609 67.7831L26.0146 68.281L27.5919 68.4276L27.6382 67.9298ZM26.0609 67.7831L26.2307 67.3129L24.7144 66.7651L24.5445 67.2354L24.3747 67.7056L25.891 68.2534L26.0609 67.7831ZM24.5445 67.2354L24.5252 66.7357L22.903 66.7985L22.9224 67.2981L22.9417 67.7977L24.5638 67.735L24.5445 67.2354ZM22.9224 67.2981L23.1685 66.8629L21.7382 66.0537L21.492 66.4889L21.2458 66.9241L22.6762 67.7333L22.9224 67.2981ZM21.492 66.4889L21.5836 65.9974L20.0306 65.7079L19.9389 66.1994L19.8473 66.6909L21.4003 66.9805L21.492 66.4889ZM19.9389 66.1994L20.0204 65.7061L18.4289 65.4434L18.3475 65.9368L18.2661 66.4301L19.8575 66.6927L19.9389 66.1994ZM18.3475 65.9368L18.6252 65.521L17.2868 64.6271L17.0091 65.0429L16.7314 65.4587L18.0698 66.3526L18.3475 65.9368ZM17.0091 65.0429L17.285 64.626L15.9707 63.7562L15.6948 64.1732L15.4189 64.5902L16.7332 65.4599L17.0091 65.0429ZM15.6948 64.1732L15.8916 63.7136L14.4181 63.0828L14.2213 63.5424L14.0245 64.0021L15.498 64.6329L15.6948 64.1732ZM14.2213 63.5424L14.5811 63.1952L13.4755 62.0497L13.1158 62.397L12.756 62.7442L13.8615 63.8897L14.2213 63.5424ZM13.1158 62.397L13.4072 61.9907L12.0971 61.0507L11.8056 61.457L11.5141 61.8632L12.8243 62.8032L13.1158 62.397ZM11.8056 61.457L12.2142 61.1687L11.2909 59.8601L10.8824 60.1483L10.4738 60.4365L11.397 61.7452L11.8056 61.457ZM10.8824 60.1483L11.3058 59.8824L10.4551 58.5276L10.0317 58.7935L9.60821 59.0593L10.4589 60.4142L10.8824 60.1483ZM10.0317 58.7935L10.4956 58.6071L9.89982 57.1239L9.43586 57.3103L8.97189 57.4967L9.56769 58.9798L10.0317 58.7935ZM9.43586 57.3103L9.90049 57.1256L9.30918 55.638L8.84454 55.8227L8.3799 56.0074L8.97122 57.495L9.43586 57.3103ZM8.84454 55.8227L9.34369 55.7935L9.24979 54.1858L8.75064 54.2149L8.25149 54.2441L8.34539 55.8518L8.84454 55.8227ZM8.75064 54.2149L9.25037 54.1984L9.19826 52.6201L8.69853 52.6366L8.1988 52.6531L8.25091 54.2314L8.75064 54.2149ZM8.69853 52.6366L9.1825 52.511L8.77834 50.9539L8.29438 51.0795L7.81041 51.2051L8.21457 52.7622L8.69853 52.6366ZM8.29438 51.0795L8.78921 51.1512L9.0179 49.5729L8.52307 49.5012L8.02824 49.4295L7.79954 51.0078L8.29438 51.0795ZM8.52307 49.5012L9.01777 49.5738L9.24648 48.0157L8.75178 47.9431L8.25709 47.8705L8.02837 49.4286L8.52307 49.5012ZM8.75178 47.9431L9.25096 47.9144L9.15843 46.3043L8.65926 46.3329L8.16008 46.3616L8.25261 47.9718L8.75178 47.9431ZM8.65926 46.3329L9.11243 46.5442L9.79744 45.0748L9.34426 44.8636L8.89109 44.6523L8.20608 46.1217L8.65926 46.3329ZM9.34426 44.8636L9.84343 44.8924L9.93639 43.285L9.43723 43.2561L8.93806 43.2272L8.8451 44.8347L9.34426 44.8636ZM9.43723 43.2561L9.92309 43.3742L10.2995 41.8253L9.81361 41.7072L9.32775 41.5891L8.95136 43.138L9.43723 43.2561ZM9.81361 41.7072L10.2388 41.9702L11.0867 40.5994L10.6615 40.3364L10.2362 40.0734L9.38838 41.4442L9.81361 41.7072ZM10.6615 40.3364L11.0973 40.5815L11.8713 39.2051L11.4354 38.96L10.9996 38.715L10.2256 40.0914L10.6615 40.3364ZM11.4354 38.96L11.9228 39.0715L12.2867 37.4813L11.7993 37.3698L11.3119 37.2582L10.948 38.8485L11.4354 38.96ZM11.7993 37.3698L12.1723 37.7027L13.2472 36.4987L12.8742 36.1657L12.5012 35.8328L11.4263 37.0368L11.7993 37.3698ZM12.8742 36.1657L13.2998 36.4281L14.1264 35.0874L13.7008 34.825L13.2752 34.5626L12.4486 35.9033L12.8742 36.1657ZM13.7008 34.825L14.1253 35.0891L14.9665 33.7369L14.5419 33.4728L14.1174 33.2087L13.2762 34.5609L13.7008 34.825ZM14.5419 33.4728L14.9089 33.8124L15.9878 32.6467L15.6208 32.3071L15.2539 31.9674L14.175 33.1331L14.5419 33.4728ZM15.6208 32.3071L15.9285 32.7012L17.1821 31.7225L16.8744 31.3284L16.5667 30.9343L15.3132 31.913L15.6208 32.3071ZM16.8744 31.3284L17.1955 31.7116L18.4043 30.6989L18.0831 30.3157L17.762 29.9324L16.5533 30.9451L16.8744 31.3284ZM18.0831 30.3157L18.4441 30.6616L19.5571 29.5003L19.1961 29.1543L18.8351 28.8084L17.7221 29.9697L18.0831 30.3157ZM19.1961 29.1543L19.3992 29.6112L20.8664 28.9588L20.6632 28.5019L20.4601 28.045L18.9929 28.6975L19.1961 29.1543ZM20.6632 28.5019L20.9229 28.9292L22.2735 28.1086L22.0138 27.6813L21.7542 27.254L20.4036 28.0746L20.6632 28.5019ZM22.0138 27.6813L22.1781 28.1535L23.6775 27.6319L23.5133 27.1597L23.349 26.6874L21.8496 27.209L22.0138 27.6813ZM23.5133 27.1597L23.7651 27.5916L25.1372 26.7915L24.8854 26.3596L24.6335 25.9277L23.2614 26.7278L23.5133 27.1597ZM24.8854 26.3596L25.0348 26.8367L26.5432 26.3642L26.3938 25.8871L26.2443 25.4099L24.7359 25.8825L24.8854 26.3596ZM26.3938 25.8871L26.6075 26.3391L27.7963 25.7769L27.5825 25.3249L27.3687 24.8729L26.18 25.4351L26.3938 25.8871ZM27.5825 25.3249H27.0825V25.4949H27.5825H28.0825V25.3249H27.5825Z" fill="white"/>
<path d="M16.75 54C27.015 57.605 41.7106 56.8873 55.5956 52.4323C62.5 51.17 63.21 57.195 62 59.92C58 68.92 20 69.5 12 60C9.50501 57.035 10.535 50.87 13.75 52L16.75 54Z" fill="#F4F4F4"/>
<path d="M25.0799 47.909C22.1499 50.359 19.4749 46.149 20.8899 43.264C21.6249 41.529 23.4299 40.609 24.9149 41.539C26.9699 42.829 26.8649 46.274 25.1699 47.829L25.0799 47.914V47.909Z" fill="#262626"/>
<path d="M39.0125 44.985C41.1675 40.245 46.6775 44.105 44.6925 48.345C42.4475 52.515 37.4425 49.135 38.9625 45.115L39.0125 44.985Z" fill="#262626"/>
<path d="M50.3985 14.7463C50.6356 14.6774 50.865 14.7203 51.0616 14.8694L51.2628 15.0227L51.464 15.175C51.5661 15.2526 51.683 15.3045 51.8175 15.3303L52.0743 15.3801L52.3311 15.4289C52.5857 15.4777 52.774 15.6322 52.8643 15.8762L52.9532 16.1155L53.0411 16.3557C53.0963 16.5049 53.1597 16.6436 53.2296 16.7727L53.3429 16.9836L53.4571 17.1936C53.5447 17.3552 53.6077 17.5271 53.6456 17.7082L53.6944 17.9455L53.7442 18.1819C53.7815 18.3603 53.7959 18.5411 53.7872 18.7229L53.7638 19.2053C53.7552 19.3849 53.7265 19.562 53.6778 19.7346L53.6124 19.966L53.5479 20.1975C53.5107 20.3296 53.4917 20.4659 53.4913 20.6067L53.4903 20.8508V21.0959C53.4898 21.301 53.4385 21.4952 53.339 21.674L53.2208 21.8869L53.1026 22.0989C53.0311 22.2273 52.9728 22.3607 52.9268 22.4973L52.8497 22.7239L52.7735 22.9514C52.7183 23.1156 52.6505 23.2748 52.5694 23.428L52.3448 23.8518C52.2644 24.0037 52.1728 24.1487 52.0714 24.2873L51.9308 24.4817L51.7892 24.675C51.6944 24.8046 51.5983 24.934 51.502 25.0627L51.3585 25.2541L51.2149 25.4465C51.1136 25.582 51.0051 25.7121 50.8897 25.8352L50.7257 26.009L50.5626 26.1838C50.45 26.3039 50.333 26.4204 50.213 26.5334L50.0392 26.6985L49.8643 26.8625C49.7378 26.9817 49.6012 27.0889 49.4561 27.1848L49.2569 27.3176L49.0567 27.4494C48.9404 27.5263 48.8324 27.618 48.7335 27.7239L48.3976 28.0832C48.2604 28.23 48.0975 28.3407 47.9112 28.4133L47.6837 28.5022L47.4571 28.5901C47.3054 28.6491 47.1545 28.7066 47.005 28.7629L46.7813 28.8469L46.5577 28.9319C46.4146 28.9858 46.2716 29.0454 46.13 29.1106L45.9102 29.2121L45.6895 29.3137C45.4967 29.4024 45.2914 29.4291 45.0811 29.3948L44.838 29.3547L44.5958 29.3157C44.4711 29.2952 44.3437 29.3019 44.213 29.3381L43.7208 29.4748C43.5005 29.5358 43.2812 29.5182 43.0753 29.4211L42.8507 29.3157L42.6251 29.2092C42.4361 29.1201 42.28 28.9889 42.1602 28.8186L42.0177 28.6174L41.8761 28.4153C41.792 28.2958 41.7267 28.2401 41.6856 28.218L41.5509 28.1448L41.4151 28.0725C41.3701 28.0483 41.3353 28.0291 41.3116 28.0158C41.3006 28.0097 41.289 28.0032 41.2794 27.9973C41.2767 27.9956 41.2645 27.9875 41.252 27.9778C41.2483 27.9749 41.2411 27.9703 41.2335 27.9631C41.2286 27.9585 41.2098 27.9401 41.1925 27.9123C41.1838 27.8985 41.1662 27.868 41.1583 27.8254C41.155 27.8074 41.1567 27.7861 41.1583 27.7629C41.1494 27.7279 41.1366 27.6784 41.1192 27.6145L40.9942 27.1535C40.9586 27.0224 40.9042 26.8946 40.8311 26.7698L40.7052 26.5549L40.5792 26.3391C40.4725 26.1565 40.4203 25.9574 40.4259 25.7473L40.4327 25.5032L40.4395 25.26C40.4439 25.0956 40.4494 24.9311 40.4571 24.7678L40.4806 24.2834C40.49 24.0851 40.5413 23.8955 40.6339 23.718L40.7491 23.4983L40.8634 23.2795C40.9325 23.1471 40.9868 23.0128 41.0274 22.8772L41.1642 22.4221C41.2067 22.28 41.2418 22.1315 41.2696 21.9778L41.3136 21.7346L41.3575 21.4905C41.3926 21.2962 41.4636 21.1156 41.5694 20.9514L41.7013 20.7473L41.8321 20.5432C41.9266 20.3967 42.0322 20.2579 42.1476 20.1272L42.3077 19.9455L42.4688 19.7629C42.572 19.646 42.6706 19.5262 42.7638 19.4045L42.9083 19.2151L43.0538 19.0256C43.1504 18.8995 43.2475 18.7729 43.3438 18.6457L43.6329 18.2629C43.7299 18.1349 43.8286 18.0061 43.9278 17.8772L44.2247 17.4924C44.3443 17.337 44.4904 17.2098 44.6622 17.1135L44.877 16.9934L45.0909 16.8742C45.2111 16.8069 45.3176 16.7227 45.4112 16.6223L45.5782 16.4436L45.7452 16.2639C45.8924 16.1061 46.0767 16.0039 46.2892 15.9582L46.5352 15.9055L46.7804 15.8528C46.8922 15.8287 46.9897 15.7737 47.0753 15.6819L47.253 15.4905L47.4317 15.299C47.5888 15.1305 47.7841 15.0269 48.0108 15.0012L48.2569 14.9739L48.503 14.9455C48.6785 14.9257 48.8531 14.9185 49.0265 14.924L49.2686 14.9319L49.5099 14.9397C49.6436 14.944 49.7785 14.9267 49.9151 14.8869L50.1573 14.8166L50.3985 14.7463ZM31.5479 11.7141C31.7879 11.6265 32.0247 11.6638 32.2267 11.8196L32.4288 11.9758L32.6319 12.1321C32.7367 12.2128 32.8511 12.2658 32.9776 12.2912L33.2257 12.341L33.4727 12.3899C33.7011 12.4356 33.8878 12.5583 34.0177 12.7512L34.1563 12.9573L34.295 13.1623C34.3732 13.2785 34.4665 13.38 34.5753 13.467L34.7677 13.6223L34.961 13.7766C35.1115 13.8969 35.2381 14.0389 35.3399 14.2014L35.4708 14.4084L35.6007 14.6164C35.7078 14.7873 35.7729 14.9755 35.796 15.178L35.8526 15.678C35.8689 15.8207 35.9045 15.9529 35.9581 16.0754L36.0548 16.2951L36.1505 16.5149C36.2198 16.6733 36.2767 16.8366 36.3204 17.0041L36.4415 17.469C36.4823 17.6254 36.5218 17.7833 36.5597 17.9416L36.6153 18.177L36.672 18.4123C36.7121 18.5805 36.7406 18.751 36.7569 18.9231L36.7794 19.1643L36.8028 19.4045C36.8186 19.5705 36.8285 19.7376 36.8331 19.9045L36.8399 20.1457L36.8458 20.3879C36.8511 20.5802 36.8217 20.7698 36.7579 20.9543L36.6759 21.1897L36.5948 21.425C36.5519 21.5493 36.5361 21.6746 36.547 21.802L36.5684 22.0461L36.589 22.2903C36.6056 22.4855 36.584 22.6772 36.5245 22.8625L36.4513 23.093L36.377 23.3225C36.3308 23.4665 36.293 23.6135 36.2638 23.7619L36.2169 23.9992L36.17 24.2356C36.1324 24.426 36.0592 24.6036 35.9513 24.7658L35.6817 25.1721C35.5907 25.3089 35.4994 25.4426 35.4083 25.5725L35.2735 25.7649L35.1378 25.9573C35.0646 26.0618 35.0044 26.1849 34.9601 26.3283L34.8839 26.5774L34.8067 26.8264C34.7399 27.0424 34.6143 27.2208 34.4317 27.3508L34.2276 27.4963L34.0226 27.6418C33.8645 27.7543 33.6926 27.8395 33.5079 27.8948L33.2696 27.9651L33.0323 28.0364C32.871 28.0846 32.7082 28.1294 32.545 28.1711L32.0645 28.2942C31.8727 28.3431 31.6808 28.353 31.4933 28.3186L31.046 28.2365C30.9704 28.2227 30.9022 28.2074 30.8517 28.1907C30.8328 28.1844 30.7856 28.1686 30.7433 28.136C30.724 28.121 30.6666 28.0734 30.6466 27.9875C30.6433 27.9736 30.6436 27.9596 30.6427 27.9465C30.6402 27.945 30.6375 27.9432 30.6349 27.9416L30.4308 27.8196L30.2276 27.6965C30.0795 27.6074 29.9411 27.507 29.8136 27.3948L29.6397 27.2414L29.4649 27.0881C29.3456 26.9831 29.2288 26.8751 29.1153 26.7639L28.9503 26.6008L28.7843 26.4387C28.6781 26.3347 28.5649 26.2315 28.4454 26.1291L28.2599 25.9699L28.0753 25.8117C27.9285 25.6859 27.8089 25.5371 27.7188 25.3674L27.4923 24.9416C27.4156 24.797 27.3412 24.6505 27.2696 24.5022L27.1651 24.2834L27.0597 24.0647C26.9708 23.8805 26.9312 23.6828 26.9405 23.4758L26.964 22.9739C26.9692 22.8579 26.9415 22.7513 26.878 22.6487L26.7433 22.4309L26.6085 22.2141C26.4987 22.0369 26.4339 21.8444 26.419 21.6408L26.4015 21.3996L26.3839 21.1574C26.3711 20.9824 26.3737 20.8071 26.3907 20.6321L26.4376 20.1477C26.4525 19.9945 26.46 19.8419 26.4601 19.6907V19.2121C26.4601 19.0342 26.4796 18.8577 26.5186 18.6838L26.5714 18.4494L26.6241 18.216C26.6579 18.0657 26.6862 17.9145 26.7091 17.7639L26.7442 17.5295L26.7804 17.2942C26.804 17.1382 26.8281 16.9808 26.8517 16.8225L26.922 16.3459C26.9503 16.1556 27.0141 15.9759 27.1114 15.8098L27.3556 15.3938C27.429 15.2685 27.4901 15.137 27.5392 15.0002L27.6202 14.7727L27.7022 14.5461C27.7612 14.3818 27.833 14.2222 27.9181 14.0696L28.1544 13.6477C28.245 13.4852 28.3577 13.3385 28.4923 13.2102L28.6671 13.0442L28.8419 12.8772C28.9678 12.7572 29.1025 12.6476 29.2452 12.549L29.6417 12.2756C29.8047 12.1632 29.9859 12.092 30.1808 12.0637L30.4151 12.0295L30.6495 11.9963C30.7876 11.9763 30.929 11.9403 31.0724 11.8879L31.3097 11.801L31.5479 11.7141Z" fill="#262626"/>
<path d="M29.1773 66.5117C27.9525 65.4976 28.4462 63.3808 30.1959 63.7031L30.2896 63.7236C33.2206 64.6077 32.077 68.7581 29.1773 66.5117ZM57.8629 62.4902C60.4926 62.4306 60.7473 66.63 57.7574 65.415C56.4725 64.8399 56.273 62.725 57.7779 62.5L57.8629 62.4902ZM15.4371 64.5C15.1972 61.865 19.3474 61.5603 18.3424 64.5703C17.8572 65.865 15.7778 66.0948 15.4478 64.5849L15.4322 64.5H15.4371ZM44.8131 65.0205C42.6132 63.2855 45.4029 59.8704 46.9879 62.8398C47.6279 64.1548 46.2882 65.9199 44.8883 65.0752L44.8131 65.0254V65.0205ZM7.53281 54.6103C8.10779 52.2154 11.8122 53.2598 10.0426 55.5947C9.23764 56.5796 7.35839 56.1201 7.52304 54.6904L7.53769 54.6103H7.53281ZM60.6471 49.7548C63.412 49.3049 64.0475 53.6698 60.7877 52.83C59.3878 52.4151 58.9877 50.2306 60.5572 49.7754L60.6471 49.7548ZM8.3912 39.4795C9.15961 39.0322 10.1859 39.3626 10.6832 40.2168C11.1805 41.0712 10.9605 42.1269 10.192 42.5742C9.42353 43.0211 8.3972 42.6912 7.89999 41.8369C7.4028 40.9825 7.62279 39.9267 8.3912 39.4795ZM54.3971 30.7695C54.7573 29.3497 56.923 28.87 57.443 30.4199L57.4674 30.5097C58.0224 33.2547 53.6921 34.0595 54.3971 30.7695Z" fill="#262626"/>
<path d="M43.4365 23.9097C44.315 22.4728 45.7506 21.75 46.6436 22.2954C47.5365 22.8413 47.5484 24.4491 46.6699 25.8862C45.7913 27.3234 44.3549 28.0464 43.4619 27.5005C42.5691 26.9546 42.5579 25.3468 43.4365 23.9097ZM31.711 20.5103C32.7255 20.4558 33.6137 21.6224 33.6944 23.1167C33.775 24.6111 33.0176 25.8674 32.0029 25.9224C30.9882 25.9771 30.1002 24.8095 30.0196 23.3149C29.939 21.8205 30.6963 20.565 31.711 20.5103Z" fill="#FEFEFE"/>
</svg>
